<!DOCTYPE svg PUBLIC "-//W3C//DTD SVG 20010904//EN" "http://www.w3.org/TR/2001/REC-SVG-20010904/DTD/svg10.dtd">
<svg version="1.0" xmlns="http://www.w3.org/2000/svg" width="179px" height="100px" viewBox="0 0 1790 1000" preserveAspectRatio="xMidYMid meet">
<g id="layer101" fill="#000000" stroke="none">
 <path d="M27 955 c-4 -8 1 -38 10 -67 25 -87 108 -148 199 -148 l29 0 -32 -22 c-45 -32 -50 -51 -45 -156 4 -77 7 -92 20 -90 22 4 35 63 29 125 -5 48 -3 54 22 76 16 13 43 29 60 37 42 17 34 36 -15 33 -38 -2 -37 -1 21 21 33 13 87 37 121 54 86 43 127 49 153 23 21 -21 27 -71 15 -118 -6 -21 -7 -21 -30 -6 -37 24 -129 13 -185 -22 -43 -27 -59 -42 -59 -57 0 -13 32 -9 94 12 131 44 164 15 107 -94 -17 -34 -31 -69 -31 -78 0 -54 82 27 130 127 59 125 61 232 4 289 -23 22 -35 26 -89 26 -56 0 -75 -6 -173 -55 -176 -87 -241 -72 -316 73 -18 35 -31 40 -39 17z"/>
 <path d="M893 947 c-36 -13 -80 -53 -70 -63 3 -3 20 -1 38 5 70 24 163 2 199 -49 61 -86 -16 -244 -147 -302 -59 -26 -59 -55 0 -86 58 -31 141 -111 166 -161 12 -22 21 -59 21 -82 0 -55 -51 -109 -101 -109 -142 0 -224 244 -217 645 3 188 3 190 -19 193 -27 4 -29 -4 -43 -140 -17 -160 9 -428 54 -555 45 -129 135 -213 223 -213 45 1 108 35 139 75 68 90 32 233 -86 337 l-59 51 49 44 c96 86 141 235 97 320 -42 79 -157 122 -244 90z"/>
 <path d="M1295 928 c-67 -24 -75 -53 -13 -45 119 16 290 -70 352 -176 76 -131 48 -294 -69 -411 -54 -54 -136 -101 -197 -112 l-38 -6 0 194 c0 175 -17 383 -36 431 -3 9 -12 17 -20 17 -11 0 -14 -31 -14 -167 0 -93 5 -217 10 -278 6 -60 13 -138 16 -171 5 -53 9 -63 30 -73 37 -16 76 -14 141 10 258 96 371 386 239 611 -79 135 -274 221 -401 176z"/>
 <path d="M377 437 c-67 -21 -117 -88 -117 -155 0 -103 107 -245 194 -259 51 -8 48 16 -10 69 -62 57 -104 131 -104 185 0 34 5 46 32 68 29 25 38 27 89 22 94 -8 184 -83 177 -147 -4 -39 -59 -62 -127 -55 -40 5 -52 4 -49 -6 7 -22 71 -49 115 -49 91 0 133 37 133 117 0 93 -73 175 -185 208 -62 18 -95 18 -148 2z"/>
 </g>

</svg>