<!DOCTYPE svg PUBLIC "-//W3C//DTD SVG 20010904//EN" "http://www.w3.org/TR/2001/REC-SVG-20010904/DTD/svg10.dtd">
<svg version="1.0" xmlns="http://www.w3.org/2000/svg" width="1443px" height="420px" viewBox="0 0 14430 4200" preserveAspectRatio="xMidYMid meet">
<g id="layerbg1" fill="#030303" stroke="none">
 <path d="M4756 3821 c-9 -14 -7 -2496 2 -2494 11 2 290 161 333 190 19 12 38 23 42 23 6 0 187 104 227 130 8 5 41 23 73 40 l57 30 0 125 c0 68 -4 126 -9 129 -4 3 -37 -12 -72 -32 -35 -21 -111 -65 -169 -97 -58 -32 -118 -66 -135 -76 -16 -10 -51 -30 -77 -44 l-48 -25 0 154 0 155 28 19 c15 11 48 31 72 44 25 14 90 51 145 83 55 32 120 69 145 83 25 14 62 36 83 50 l37 25 0 122 c0 67 -3 124 -6 128 -4 3 -23 -5 -43 -18 -19 -14 -40 -25 -44 -25 -5 0 -29 -13 -54 -30 -24 -16 -46 -30 -48 -30 -2 0 -52 -28 -112 -63 -59 -34 -119 -68 -133 -75 -14 -6 -35 -19 -47 -28 l-23 -16 0 704 c0 659 -1 706 -17 720 -18 15 -187 108 -196 108 -3 0 -8 -4 -11 -9z"/>
 <path d="M227 3763 c-12 -11 -8 -2501 4 -2508 5 -4 27 4 47 17 41 27 186 114 247 148 22 12 51 31 64 41 13 11 27 19 31 19 9 0 218 123 265 156 17 11 38 24 48 27 16 6 17 33 15 433 -3 411 -4 427 -22 438 -11 6 -38 23 -59 39 -22 15 -44 27 -50 27 -5 0 -29 14 -54 30 -24 17 -46 30 -48 30 -3 0 -49 26 -102 58 -54 31 -110 64 -125 71 l-28 14 0 424 0 423 -47 24 c-27 13 -75 40 -107 60 -63 38 -69 40 -79 29z m401 -1320 l92 -56 0 -296 0 -297 -70 -39 c-39 -22 -97 -55 -130 -73 l-60 -33 0 445 0 446 38 -21 c20 -11 79 -46 130 -76z"/>
 <path d="M9967 2973 c-4 -3 -7 -320 -7 -704 l0 -698 -62 39 c-35 22 -90 54 -123 71 -33 17 -67 37 -76 45 -8 8 -19 14 -23 14 -5 0 -53 27 -108 60 -54 33 -101 60 -103 60 -8 0 -205 -121 -209 -129 -6 -10 35 -41 94 -71 24 -12 56 -30 70 -40 26 -18 164 -97 240 -138 24 -13 57 -32 71 -43 15 -10 30 -19 34 -19 4 0 49 -25 101 -56 l94 -56 0 -418 c0 -229 3 -419 6 -423 4 -3 27 8 53 26 25 17 75 47 111 67 l65 36 0 416 0 417 85 52 c47 28 94 55 105 59 11 5 35 20 54 34 19 14 38 26 43 26 10 0 178 99 196 115 11 10 5 19 -35 45 -26 18 -68 44 -93 58 -25 14 -53 30 -62 36 -13 7 -21 6 -35 -6 -10 -9 -45 -30 -78 -47 -33 -18 -86 -47 -119 -66 -32 -19 -60 -35 -62 -35 -2 0 -4 261 -4 579 l0 580 -26 20 c-15 12 -31 21 -36 21 -5 0 -28 13 -51 28 -35 23 -91 52 -101 52 -1 0 -6 -3 -9 -7z"/>
 <path d="M11820 2903 c-52 -31 -126 -74 -165 -96 -121 -69 -258 -150 -302 -176 -23 -14 -64 -38 -92 -53 l-51 -28 0 -382 c0 -211 -3 -399 -6 -418 -7 -42 -2 -46 176 -146 57 -32 112 -63 121 -69 9 -5 36 -21 60 -34 24 -13 114 -66 200 -117 86 -52 161 -94 168 -94 10 0 83 36 130 65 9 6 64 37 121 69 58 32 121 69 140 81 87 54 262 155 270 155 5 0 22 12 39 26 l31 26 0 417 c0 462 5 427 -65 461 -16 8 -74 41 -128 73 -53 31 -100 57 -104 57 -3 0 -14 6 -22 14 -9 7 -43 28 -76 46 -33 18 -67 39 -76 46 -8 8 -19 14 -23 14 -4 0 -54 27 -110 60 -57 33 -111 60 -122 59 -10 0 -62 -26 -114 -56z m193 -245 c40 -23 99 -57 132 -75 33 -19 112 -64 174 -101 l115 -67 -3 -285 c-2 -263 -3 -286 -20 -300 -19 -15 -45 -31 -141 -85 -30 -17 -113 -66 -185 -108 -71 -42 -138 -77 -148 -77 -16 0 -152 74 -274 149 -23 14 -85 51 -138 81 l-95 55 0 282 0 282 98 57 c119 71 149 89 282 169 58 35 111 64 118 64 7 1 45 -18 85 -41z"/>
 <path d="M1805 2890 c-82 -50 -121 -73 -235 -139 -36 -20 -103 -60 -150 -87 -47 -28 -122 -72 -167 -99 l-83 -48 0 -424 0 -423 27 -11 c16 -6 42 -21 60 -35 17 -13 35 -24 38 -24 4 0 52 -27 107 -60 54 -33 102 -60 107 -60 4 0 25 -13 47 -30 21 -16 43 -30 48 -30 4 0 52 -27 107 -60 54 -33 101 -60 104 -60 4 0 22 -12 42 -27 l35 -27 52 28 c28 16 71 41 96 56 25 15 95 55 155 90 61 35 121 70 135 79 14 9 53 32 87 51 35 19 97 54 138 78 l75 43 0 544 c0 299 -3 546 -7 548 -5 2 -46 -17 -93 -44 -135 -77 -125 -75 -184 -34 -28 19 -54 35 -58 35 -3 0 -64 34 -134 76 -151 89 -252 144 -262 143 -4 0 -43 -22 -87 -49z m149 -245 c25 -13 84 -47 130 -75 46 -27 88 -50 93 -50 6 0 17 -7 24 -16 7 -9 33 -26 59 -38 25 -12 66 -34 92 -50 l47 -27 1 -295 c0 -162 -3 -294 -8 -294 -5 0 -28 -13 -53 -28 -48 -31 -195 -116 -245 -142 -16 -9 -43 -25 -60 -36 -16 -11 -53 -33 -83 -48 l-53 -27 -85 50 c-46 28 -88 51 -92 51 -4 0 -25 13 -47 30 -21 16 -43 30 -47 30 -5 0 -58 30 -118 66 l-109 66 0 289 c0 159 4 289 8 289 7 0 185 103 242 140 8 5 35 21 60 34 25 13 74 42 110 64 36 23 70 41 76 41 6 1 32 -10 58 -24z"/>
 <path d="M3360 2873 c-63 -36 -140 -79 -170 -96 -30 -16 -62 -36 -71 -43 -8 -8 -18 -14 -22 -14 -4 0 -45 -23 -92 -50 -94 -56 -146 -86 -217 -125 l-48 -25 0 -425 0 -425 33 -14 c17 -8 77 -42 132 -75 55 -33 129 -76 165 -96 36 -19 106 -60 155 -90 50 -30 112 -67 140 -81 27 -15 62 -36 77 -47 22 -16 33 -19 46 -11 9 6 44 26 77 44 33 18 65 37 71 41 6 5 35 22 65 38 30 16 92 52 139 80 47 28 114 66 150 86 36 19 74 41 85 48 11 6 43 27 73 45 29 18 51 36 48 41 -3 4 -53 36 -110 70 l-105 62 -53 -35 c-29 -20 -56 -36 -59 -36 -4 0 -65 -34 -135 -76 -228 -135 -255 -148 -279 -133 -23 14 -207 120 -275 157 -25 13 -52 31 -61 38 -8 8 -18 14 -22 14 -3 0 -33 16 -66 35 l-61 36 0 287 1 287 37 17 c39 18 182 100 242 138 19 13 55 34 79 47 24 14 64 38 89 54 25 16 50 29 54 29 5 0 57 -28 116 -61 59 -34 132 -75 162 -92 30 -16 61 -34 68 -40 7 -5 47 -29 89 -53 l76 -44 91 52 c116 66 129 77 115 95 -6 7 -16 13 -21 13 -5 0 -33 15 -61 33 -29 19 -99 61 -157 95 -58 33 -121 70 -140 81 -19 12 -84 50 -145 85 -60 35 -125 74 -143 85 -18 12 -36 21 -40 21 -4 0 -59 -30 -122 -67z"/>
 <path d="M6745 2914 c-27 -14 -66 -36 -85 -48 -37 -24 -184 -109 -235 -136 -16 -9 -49 -28 -72 -43 -24 -15 -46 -27 -50 -27 -5 0 -26 -12 -48 -27 -22 -15 -65 -40 -95 -56 -30 -16 -67 -38 -83 -49 l-27 -20 2 -416 c3 -414 3 -416 24 -427 12 -6 28 -16 35 -22 8 -6 39 -24 69 -40 68 -37 313 -178 360 -208 19 -12 83 -50 142 -84 l107 -62 33 17 c18 9 44 25 58 34 14 10 52 32 85 50 66 35 128 70 312 178 68 40 125 72 129 72 3 0 29 17 57 37 l50 37 -33 25 c-18 15 -67 44 -109 67 l-75 41 -76 -45 c-41 -24 -100 -58 -130 -74 -30 -17 -67 -39 -82 -49 -14 -11 -29 -19 -32 -19 -3 0 -44 -23 -92 -51 l-86 -51 -61 33 c-34 18 -73 41 -86 51 -13 10 -27 18 -32 18 -5 0 -81 43 -169 95 l-160 96 0 289 c0 208 3 290 11 290 6 0 30 12 53 26 73 45 371 221 404 238 39 20 20 29 387 -185 39 -22 88 -52 111 -65 l40 -23 50 26 c72 38 157 97 158 108 1 9 -95 69 -319 200 -55 32 -120 70 -145 85 -106 64 -238 140 -241 140 -2 -1 -26 -12 -54 -26z"/>
 <path d="M8365 2924 c-11 -9 -74 -46 -140 -84 -66 -37 -138 -79 -160 -92 -22 -14 -89 -53 -150 -88 -60 -34 -121 -70 -135 -80 -14 -10 -45 -27 -68 -39 l-42 -21 0 -425 0 -425 23 -9 c13 -5 65 -34 115 -65 51 -31 95 -56 97 -56 2 0 24 -13 48 -30 25 -16 49 -30 54 -30 6 0 29 -13 51 -30 23 -16 45 -30 48 -30 3 0 51 -27 106 -60 54 -33 102 -60 105 -60 3 0 21 -11 39 -25 40 -31 44 -31 88 -2 19 12 63 38 97 57 58 33 219 126 319 185 25 15 96 56 158 92 l112 65 0 539 c0 350 -4 540 -10 544 -6 3 -40 -10 -78 -31 -37 -20 -83 -45 -103 -56 l-36 -19 -54 36 c-29 19 -57 35 -62 35 -5 0 -28 14 -52 30 -24 17 -46 30 -49 30 -3 0 -51 27 -107 60 -55 33 -103 60 -106 60 -3 0 -16 9 -30 20 -30 24 -51 25 -78 4z m179 -329 c69 -41 128 -75 132 -75 4 0 15 -6 23 -14 9 -8 52 -33 96 -56 44 -24 85 -48 92 -54 8 -8 12 -94 14 -300 l3 -289 -90 -53 c-49 -30 -105 -62 -125 -72 -19 -10 -74 -42 -121 -70 -47 -29 -89 -52 -93 -52 -3 0 -21 -11 -39 -25 l-32 -24 -29 24 c-17 13 -34 24 -39 25 -4 0 -53 27 -108 60 -54 33 -102 60 -107 60 -4 0 -25 13 -47 30 -21 16 -42 30 -46 30 -4 0 -34 16 -68 36 l-60 35 2 287 3 286 71 41 c39 22 77 45 85 51 8 7 39 25 69 41 84 46 234 133 245 144 19 18 46 8 169 -66z"/>
 <path d="M12817 2533 c-4 -3 -7 -282 -7 -620 0 -516 2 -614 14 -619 15 -6 93 31 174 82 l52 34 0 75 c0 41 3 75 6 75 5 0 126 -67 164 -90 8 -6 38 -22 65 -36 28 -14 64 -37 82 -50 17 -13 34 -24 37 -24 3 0 36 -18 72 -41 63 -38 68 -40 98 -28 34 14 225 121 266 149 15 10 48 29 75 44 28 14 122 68 210 119 l160 94 3 417 c2 368 0 417 -13 422 -9 4 -23 0 -33 -9 -9 -8 -42 -27 -72 -42 -30 -15 -70 -39 -87 -53 l-33 -24 0 -288 0 -287 -57 -35 c-32 -20 -76 -45 -98 -57 -22 -12 -72 -41 -111 -64 -222 -131 -223 -131 -258 -114 -45 24 -138 76 -241 136 -49 29 -123 72 -163 94 l-74 42 3 285 c2 157 0 290 -4 297 -9 14 -198 123 -213 123 -6 0 -14 -3 -17 -7z"/>
 <path d="M4366 2513 c-3 -3 -6 -188 -6 -410 0 -469 -7 -442 95 -378 22 14 61 36 88 50 l47 25 0 299 0 299 -42 25 c-109 63 -176 96 -182 90z"/>
 <path d="M10815 2508 c-3 -7 -4 -193 -3 -413 3 -457 -2 -435 92 -372 29 19 71 44 94 56 l42 21 0 299 0 299 -77 45 c-128 73 -143 79 -148 65z"/>
 <path d="M5677 2503 c-9 -8 -9 -808 -1 -816 7 -7 106 44 134 68 8 7 30 20 48 29 l32 17 0 298 0 298 -62 39 c-52 32 -133 74 -142 74 -2 0 -6 -3 -9 -7z"/>
 <path d="M4366 1653 c-8 -8 -8 -338 0 -346 4 -4 21 4 38 16 35 25 70 45 139 82 l47 25 0 54 c0 53 -1 55 -42 79 -109 63 -176 96 -182 90z"/>
 <path d="M10816 1653 c-8 -8 -8 -338 0 -346 4 -4 21 4 38 16 35 25 70 45 139 82 l47 25 0 54 c0 53 -1 55 -42 79 -109 63 -176 96 -182 90z"/>
 <path d="M5676 1643 c-8 -8 -8 -338 0 -346 4 -4 21 4 38 16 35 25 70 45 139 82 l47 25 0 54 c0 53 -1 55 -42 79 -109 63 -176 96 -182 90z"/>
 </g>
<g id="layerbg2" fill="#fefefe" stroke="none">
 <path d="M0 2100 l0 -2100 7215 0 7215 0 0 2100 0 2100 -7215 0 -7215 0 0 -2100z m4958 907 c2 -577 5 -707 16 -716 10 -8 22 -5 50 14 20 14 39 25 41 25 2 0 54 29 115 65 61 36 114 65 117 65 4 0 14 6 22 14 9 7 46 30 84 50 l67 36 0 -109 c0 -122 2 -118 -90 -168 -30 -16 -100 -56 -155 -88 -55 -32 -119 -69 -141 -81 -23 -12 -60 -35 -83 -49 l-41 -28 0 -163 c0 -93 4 -165 10 -169 9 -5 61 20 135 64 17 10 73 42 125 71 52 29 125 70 161 91 36 22 68 39 72 39 4 0 7 -49 7 -110 l0 -110 -47 -25 c-27 -14 -55 -30 -63 -35 -40 -26 -221 -130 -227 -130 -4 0 -23 -11 -42 -23 -20 -13 -100 -60 -178 -105 l-143 -81 0 1230 0 1230 93 -50 92 -50 3 -704z m-4570 661 l52 -30 0 -418 0 -419 29 -20 c16 -12 32 -21 35 -21 3 0 51 -27 106 -60 55 -33 102 -60 105 -60 2 0 24 -13 48 -30 25 -16 49 -30 54 -30 6 0 29 -13 51 -30 23 -16 46 -30 52 -30 7 0 10 -143 10 -417 l0 -418 -38 -25 c-64 -42 -264 -160 -271 -160 -4 0 -25 -13 -47 -30 -21 -16 -42 -30 -47 -30 -4 0 -42 -22 -85 -49 -42 -26 -95 -58 -117 -70 -22 -11 -50 -28 -62 -37 l-23 -16 0 1242 0 1242 48 -28 c26 -15 71 -40 100 -56z m9687 -758 c22 -14 52 -31 68 -38 l27 -12 0 -589 c0 -324 3 -592 8 -594 4 -3 36 13 72 34 36 21 92 52 125 70 33 17 68 38 77 46 10 9 23 13 30 10 13 -6 95 -55 154 -92 l32 -19 -90 -53 c-49 -29 -92 -53 -97 -53 -4 0 -25 -13 -47 -30 -21 -16 -43 -30 -48 -30 -10 0 -173 -97 -197 -117 -14 -12 -15 -58 -11 -426 l5 -413 -41 -18 c-22 -10 -66 -36 -98 -57 l-59 -39 -5 415 -5 414 -102 61 c-56 33 -105 60 -108 60 -4 0 -26 13 -50 30 -24 17 -47 30 -50 30 -4 0 -44 22 -89 49 -44 27 -99 58 -121 70 -109 60 -168 97 -168 106 0 8 131 95 169 111 6 3 56 -22 111 -55 56 -34 104 -61 109 -61 4 0 15 -6 23 -14 9 -8 43 -28 76 -45 33 -17 89 -49 123 -71 35 -22 68 -37 73 -34 5 3 9 300 9 704 l0 700 28 -12 c15 -7 45 -24 67 -38z m1981 -30 c56 -33 106 -60 110 -60 4 0 15 -6 23 -14 9 -7 43 -28 76 -46 33 -18 67 -39 76 -46 8 -8 19 -14 22 -14 4 0 51 -26 104 -58 54 -32 115 -66 136 -75 l37 -18 0 -417 0 -417 -22 -15 c-13 -8 -32 -20 -44 -26 -33 -18 -216 -125 -254 -149 -19 -12 -82 -49 -140 -81 -57 -32 -112 -63 -121 -69 -46 -28 -120 -65 -130 -65 -11 0 -308 173 -390 227 -19 12 -38 23 -41 23 -11 0 -233 129 -253 147 -20 18 -20 27 -15 428 l5 410 63 35 c34 19 99 57 145 84 94 56 179 104 292 168 44 25 103 59 130 76 28 17 59 31 69 31 11 1 65 -26 122 -59z m-10094 6 c35 -19 121 -68 192 -110 70 -42 131 -76 134 -76 4 0 30 -16 59 -36 47 -32 54 -34 76 -22 49 27 172 93 180 96 4 2 6 -236 5 -528 l-3 -533 -65 -38 c-36 -21 -92 -52 -124 -70 -33 -17 -71 -39 -85 -49 -14 -9 -75 -46 -136 -80 -60 -35 -130 -75 -155 -90 -25 -15 -68 -40 -96 -56 l-52 -28 -35 27 c-20 15 -38 27 -42 27 -3 0 -50 27 -104 60 -55 33 -103 60 -107 60 -5 0 -27 14 -48 30 -22 17 -43 30 -47 30 -6 0 -148 81 -229 131 -8 5 -32 19 -52 31 l-38 23 0 411 0 412 68 40 c90 53 232 137 312 183 114 66 153 89 235 139 44 27 83 49 87 49 4 1 36 -14 70 -33z m1560 13 c18 -11 83 -50 143 -85 61 -35 126 -73 145 -85 19 -11 85 -49 145 -84 61 -36 124 -73 140 -84 17 -11 42 -26 58 -34 l27 -14 -99 -56 -99 -56 -76 43 c-41 24 -81 48 -88 53 -7 6 -38 24 -68 40 -30 17 -103 58 -162 92 -59 33 -111 61 -115 61 -5 0 -41 -20 -81 -45 -40 -25 -74 -45 -77 -45 -3 0 -27 -15 -54 -32 -49 -33 -90 -57 -231 -134 l-75 -41 -3 -291 -2 -291 32 -24 c18 -13 53 -35 78 -48 25 -13 52 -29 60 -35 8 -6 35 -23 60 -36 68 -37 252 -143 275 -157 24 -15 51 -2 279 133 70 42 131 76 135 76 3 0 30 16 59 36 l53 35 99 -59 100 -59 -43 -24 c-23 -13 -49 -28 -58 -34 -9 -5 -47 -27 -85 -48 -38 -21 -107 -60 -154 -88 -47 -28 -109 -64 -139 -80 -30 -16 -59 -33 -65 -38 -6 -4 -38 -23 -71 -41 -33 -18 -68 -38 -77 -44 -13 -8 -24 -5 -46 11 -15 11 -50 32 -77 47 -28 14 -90 51 -140 81 -49 30 -117 69 -149 86 -33 17 -71 39 -85 49 -14 9 -72 44 -128 76 l-103 59 0 412 0 413 38 20 c78 44 125 71 207 120 47 27 88 50 92 50 4 0 14 6 22 14 9 7 41 27 71 43 30 17 107 60 170 96 63 37 118 67 122 67 4 0 22 -9 40 -21z m3377 -36 c53 -31 116 -68 141 -83 25 -15 90 -53 145 -85 124 -73 299 -176 303 -180 3 -3 -156 -99 -179 -107 -9 -4 -33 4 -55 17 -21 13 -70 42 -109 64 -38 23 -108 63 -155 90 -47 28 -111 64 -143 81 -68 36 -45 44 -267 -90 -80 -48 -163 -97 -185 -109 -22 -12 -58 -32 -80 -45 l-40 -22 -3 -296 -2 -295 170 -102 c94 -55 175 -101 179 -101 5 0 19 -8 32 -18 13 -10 52 -33 86 -51 l61 -33 86 51 c48 28 89 51 92 51 3 0 18 8 32 19 15 10 52 32 82 49 30 16 89 50 130 74 l76 45 74 -41 c130 -72 124 -65 82 -98 -20 -15 -40 -28 -45 -28 -4 0 -62 -32 -130 -72 -184 -108 -246 -143 -312 -178 -33 -18 -71 -40 -85 -50 -14 -9 -40 -25 -58 -34 l-33 -17 -107 62 c-59 34 -123 72 -142 84 -48 30 -292 171 -360 208 -30 16 -62 36 -71 43 -8 8 -21 14 -27 14 -9 0 -12 104 -12 413 l0 413 65 37 c35 20 67 37 70 37 3 0 24 14 47 30 22 17 45 30 50 30 4 0 27 12 51 27 23 15 56 34 72 43 51 27 198 112 235 136 32 20 130 72 139 74 2 0 47 -25 100 -57z m1544 37 c14 -11 27 -20 30 -20 3 0 51 -27 106 -60 56 -33 104 -60 107 -60 3 0 25 -13 49 -30 24 -16 47 -30 52 -30 5 0 33 -16 62 -35 l54 -36 36 19 c20 11 66 36 104 56 l67 37 0 -530 0 -530 -102 -60 c-57 -33 -123 -72 -148 -86 -116 -68 -263 -153 -319 -185 -34 -19 -79 -46 -99 -59 -26 -16 -41 -21 -52 -14 -8 6 -37 22 -65 37 -27 16 -87 50 -131 77 -45 27 -85 49 -88 49 -3 0 -25 14 -48 30 -22 17 -45 30 -50 30 -4 0 -27 12 -51 27 -23 15 -58 36 -78 48 -20 11 -70 40 -112 65 l-77 45 0 412 0 412 33 17 c17 10 43 25 57 34 14 10 75 46 135 80 61 35 128 74 150 88 22 13 94 55 160 92 66 38 129 75 140 84 27 21 48 20 78 -4z m4497 -434 l94 -54 -3 -289 c-2 -233 0 -291 11 -300 7 -6 58 -37 113 -69 55 -31 127 -73 160 -92 86 -50 175 -100 211 -119 35 -17 36 -17 258 114 39 23 85 49 101 59 17 9 65 37 108 62 l77 45 0 290 c0 330 -10 294 102 352 36 19 69 39 73 45 22 35 25 -20 25 -397 l-1 -408 -77 -43 c-70 -38 -245 -139 -332 -191 -99 -59 -259 -148 -286 -159 -30 -13 -35 -11 -98 27 -36 23 -69 41 -72 41 -3 0 -20 11 -37 24 -18 13 -54 36 -82 50 -52 27 -90 49 -186 104 -31 17 -59 29 -62 25 -4 -3 -7 -43 -7 -88 l0 -81 -62 -36 c-71 -40 -124 -68 -133 -68 -3 0 -5 272 -5 605 0 333 3 605 8 605 4 0 50 -24 102 -54z m-8492 -7 c31 -17 72 -40 90 -51 l32 -20 0 -287 0 -288 -61 -36 c-34 -21 -65 -37 -69 -37 -4 0 -13 -7 -20 -15 -7 -8 -19 -15 -26 -15 -12 0 -14 65 -14 390 0 215 2 390 6 390 3 0 31 -14 62 -31z m1370 -38 l52 -33 0 -287 0 -288 -52 -34 c-56 -36 -115 -69 -123 -69 -3 0 -5 175 -5 390 l0 389 38 -17 c21 -9 61 -32 90 -51z m5112 20 l85 -48 3 -291 2 -291 -37 -20 c-21 -11 -58 -34 -83 -50 -25 -17 -51 -31 -57 -31 -10 0 -13 85 -13 390 0 215 3 390 8 390 4 0 45 -22 92 -49z m-6482 -842 c124 -68 122 -66 122 -115 0 -40 -3 -45 -37 -64 -21 -11 -56 -31 -78 -45 -22 -13 -48 -29 -57 -35 -17 -10 -18 -1 -18 140 0 82 2 150 6 150 3 0 31 -14 62 -31z m6450 0 c124 -68 122 -66 122 -115 0 -40 -3 -45 -37 -64 -21 -11 -56 -31 -78 -45 -22 -13 -48 -29 -57 -35 -17 -10 -18 -1 -18 140 0 82 2 150 6 150 3 0 31 -14 62 -31z m-5140 -10 c124 -68 122 -66 122 -115 0 -40 -3 -45 -37 -64 -21 -11 -56 -31 -78 -45 -22 -13 -48 -29 -57 -35 -17 -10 -18 -1 -18 140 0 82 2 150 6 150 3 0 31 -14 62 -31z"/>
 <path d="M447 2563 c-11 -11 -8 -921 3 -928 10 -6 78 28 205 103 l80 47 3 306 2 306 -82 49 c-46 27 -104 61 -130 75 -26 14 -54 31 -61 37 -8 7 -17 9 -20 5z"/>
 <path d="M11810 2655 c-150 -91 -173 -104 -293 -174 l-107 -63 2 -291 3 -292 70 -43 c39 -23 95 -56 125 -73 30 -16 111 -63 180 -104 69 -41 134 -74 145 -74 11 -1 79 34 150 76 72 42 157 92 190 110 33 19 85 49 115 68 l55 33 5 289 c5 240 3 291 -9 305 -8 10 -63 46 -123 80 -60 35 -137 79 -171 99 -179 103 -207 119 -219 118 -7 0 -60 -29 -118 -64z"/>
 <path d="M1820 2648 c-36 -22 -85 -51 -110 -64 -25 -14 -61 -34 -80 -45 -39 -23 -192 -115 -227 -136 l-23 -13 0 -294 0 -293 120 -71 c65 -40 123 -72 127 -72 4 0 26 -14 47 -30 22 -17 43 -30 47 -30 4 0 46 -23 92 -51 l85 -50 53 27 c30 15 67 37 83 48 17 11 44 27 60 36 42 22 193 108 236 135 19 12 47 29 63 39 l27 17 0 299 -1 299 -67 38 c-37 21 -83 45 -103 54 -20 9 -39 24 -42 33 -4 9 -14 16 -23 16 -9 0 -54 23 -100 50 -109 66 -174 100 -188 99 -6 0 -40 -18 -76 -41z"/>
 <path d="M8375 2681 c-11 -11 -161 -99 -245 -144 -30 -16 -62 -35 -70 -42 -8 -6 -42 -27 -75 -45 -114 -63 -105 -32 -105 -356 l0 -283 33 -24 c17 -13 59 -39 91 -56 33 -18 70 -41 84 -52 14 -10 28 -19 33 -19 4 0 53 -27 107 -60 55 -33 104 -60 108 -60 5 -1 22 -12 39 -25 l29 -24 32 24 c18 14 36 25 39 25 4 0 44 22 89 49 44 27 100 60 123 73 127 70 191 108 212 126 l25 19 -3 294 c-2 338 13 293 -125 368 -45 23 -88 49 -97 57 -8 8 -19 14 -23 14 -4 0 -63 34 -132 75 -123 74 -150 84 -169 66z"/>
 </g>
<g id="layer101" fill="#030303" stroke="none">
 <path d="M4756 3821 c-9 -14 -7 -2496 2 -2494 11 2 290 161 333 190 19 12 38 23 42 23 6 0 187 104 227 130 8 5 41 23 73 40 l57 30 0 125 c0 68 -4 126 -9 129 -4 3 -37 -12 -72 -32 -35 -21 -111 -65 -169 -97 -58 -32 -118 -66 -135 -76 -16 -10 -51 -30 -77 -44 l-48 -25 0 154 0 155 28 19 c15 11 48 31 72 44 25 14 90 51 145 83 55 32 120 69 145 83 25 14 62 36 83 50 l37 25 0 122 c0 67 -3 124 -6 128 -4 3 -23 -5 -43 -18 -19 -14 -40 -25 -44 -25 -5 0 -29 -13 -54 -30 -24 -16 -46 -30 -48 -30 -2 0 -52 -28 -112 -63 -59 -34 -119 -68 -133 -75 -14 -6 -35 -19 -47 -28 l-23 -16 0 704 c0 659 -1 706 -17 720 -18 15 -187 108 -196 108 -3 0 -8 -4 -11 -9z"/>
 <path d="M227 3763 c-12 -11 -8 -2501 4 -2508 5 -4 27 4 47 17 41 27 186 114 247 148 22 12 51 31 64 41 13 11 27 19 31 19 9 0 218 123 265 156 17 11 38 24 48 27 16 6 17 33 15 433 -3 411 -4 427 -22 438 -11 6 -38 23 -59 39 -22 15 -44 27 -50 27 -5 0 -29 14 -54 30 -24 17 -46 30 -48 30 -3 0 -49 26 -102 58 -54 31 -110 64 -125 71 l-28 14 0 424 0 423 -47 24 c-27 13 -75 40 -107 60 -63 38 -69 40 -79 29z m401 -1320 l92 -56 0 -296 0 -297 -70 -39 c-39 -22 -97 -55 -130 -73 l-60 -33 0 445 0 446 38 -21 c20 -11 79 -46 130 -76z"/>
 <path d="M9967 2973 c-4 -3 -7 -320 -7 -704 l0 -698 -62 39 c-35 22 -90 54 -123 71 -33 17 -67 37 -76 45 -8 8 -19 14 -23 14 -5 0 -53 27 -108 60 -54 33 -101 60 -103 60 -8 0 -205 -121 -209 -129 -6 -10 35 -41 94 -71 24 -12 56 -30 70 -40 26 -18 164 -97 240 -138 24 -13 57 -32 71 -43 15 -10 30 -19 34 -19 4 0 49 -25 101 -56 l94 -56 0 -418 c0 -229 3 -419 6 -423 4 -3 27 8 53 26 25 17 75 47 111 67 l65 36 0 416 0 417 85 52 c47 28 94 55 105 59 11 5 35 20 54 34 19 14 38 26 43 26 10 0 178 99 196 115 11 10 5 19 -35 45 -26 18 -68 44 -93 58 -25 14 -53 30 -62 36 -13 7 -21 6 -35 -6 -10 -9 -45 -30 -78 -47 -33 -18 -86 -47 -119 -66 -32 -19 -60 -35 -62 -35 -2 0 -4 261 -4 579 l0 580 -26 20 c-15 12 -31 21 -36 21 -5 0 -28 13 -51 28 -35 23 -91 52 -101 52 -1 0 -6 -3 -9 -7z"/>
 <path d="M11820 2903 c-52 -31 -126 -74 -165 -96 -121 -69 -258 -150 -302 -176 -23 -14 -64 -38 -92 -53 l-51 -28 0 -382 c0 -211 -3 -399 -6 -418 -7 -42 -2 -46 176 -146 57 -32 112 -63 121 -69 9 -5 36 -21 60 -34 24 -13 114 -66 200 -117 86 -52 161 -94 168 -94 10 0 83 36 130 65 9 6 64 37 121 69 58 32 121 69 140 81 87 54 262 155 270 155 5 0 22 12 39 26 l31 26 0 417 c0 462 5 427 -65 461 -16 8 -74 41 -128 73 -53 31 -100 57 -104 57 -3 0 -14 6 -22 14 -9 7 -43 28 -76 46 -33 18 -67 39 -76 46 -8 8 -19 14 -23 14 -4 0 -54 27 -110 60 -57 33 -111 60 -122 59 -10 0 -62 -26 -114 -56z m193 -245 c40 -23 99 -57 132 -75 33 -19 112 -64 174 -101 l115 -67 -3 -285 c-2 -263 -3 -286 -20 -300 -19 -15 -45 -31 -141 -85 -30 -17 -113 -66 -185 -108 -71 -42 -138 -77 -148 -77 -16 0 -152 74 -274 149 -23 14 -85 51 -138 81 l-95 55 0 282 0 282 98 57 c119 71 149 89 282 169 58 35 111 64 118 64 7 1 45 -18 85 -41z"/>
 <path d="M1805 2890 c-82 -50 -121 -73 -235 -139 -36 -20 -103 -60 -150 -87 -47 -28 -122 -72 -167 -99 l-83 -48 0 -424 0 -423 27 -11 c16 -6 42 -21 60 -35 17 -13 35 -24 38 -24 4 0 52 -27 107 -60 54 -33 102 -60 107 -60 4 0 25 -13 47 -30 21 -16 43 -30 48 -30 4 0 52 -27 107 -60 54 -33 101 -60 104 -60 4 0 22 -12 42 -27 l35 -27 52 28 c28 16 71 41 96 56 25 15 95 55 155 90 61 35 121 70 135 79 14 9 53 32 87 51 35 19 97 54 138 78 l75 43 0 544 c0 299 -3 546 -7 548 -5 2 -46 -17 -93 -44 -135 -77 -125 -75 -184 -34 -28 19 -54 35 -58 35 -3 0 -64 34 -134 76 -151 89 -252 144 -262 143 -4 0 -43 -22 -87 -49z m149 -245 c25 -13 84 -47 130 -75 46 -27 88 -50 93 -50 6 0 17 -7 24 -16 7 -9 33 -26 59 -38 25 -12 66 -34 92 -50 l47 -27 1 -295 c0 -162 -3 -294 -8 -294 -5 0 -28 -13 -53 -28 -48 -31 -195 -116 -245 -142 -16 -9 -43 -25 -60 -36 -16 -11 -53 -33 -83 -48 l-53 -27 -85 50 c-46 28 -88 51 -92 51 -4 0 -25 13 -47 30 -21 16 -43 30 -47 30 -5 0 -58 30 -118 66 l-109 66 0 289 c0 159 4 289 8 289 7 0 185 103 242 140 8 5 35 21 60 34 25 13 74 42 110 64 36 23 70 41 76 41 6 1 32 -10 58 -24z"/>
 <path d="M3360 2873 c-63 -36 -140 -79 -170 -96 -30 -16 -62 -36 -71 -43 -8 -8 -18 -14 -22 -14 -4 0 -45 -23 -92 -50 -94 -56 -146 -86 -217 -125 l-48 -25 0 -425 0 -425 33 -14 c17 -8 77 -42 132 -75 55 -33 129 -76 165 -96 36 -19 106 -60 155 -90 50 -30 112 -67 140 -81 27 -15 62 -36 77 -47 22 -16 33 -19 46 -11 9 6 44 26 77 44 33 18 65 37 71 41 6 5 35 22 65 38 30 16 92 52 139 80 47 28 114 66 150 86 36 19 74 41 85 48 11 6 43 27 73 45 29 18 51 36 48 41 -3 4 -53 36 -110 70 l-105 62 -53 -35 c-29 -20 -56 -36 -59 -36 -4 0 -65 -34 -135 -76 -228 -135 -255 -148 -279 -133 -23 14 -207 120 -275 157 -25 13 -52 31 -61 38 -8 8 -18 14 -22 14 -3 0 -33 16 -66 35 l-61 36 0 287 1 287 37 17 c39 18 182 100 242 138 19 13 55 34 79 47 24 14 64 38 89 54 25 16 50 29 54 29 5 0 57 -28 116 -61 59 -34 132 -75 162 -92 30 -16 61 -34 68 -40 7 -5 47 -29 89 -53 l76 -44 91 52 c116 66 129 77 115 95 -6 7 -16 13 -21 13 -5 0 -33 15 -61 33 -29 19 -99 61 -157 95 -58 33 -121 70 -140 81 -19 12 -84 50 -145 85 -60 35 -125 74 -143 85 -18 12 -36 21 -40 21 -4 0 -59 -30 -122 -67z"/>
 <path d="M6745 2914 c-27 -14 -66 -36 -85 -48 -37 -24 -184 -109 -235 -136 -16 -9 -49 -28 -72 -43 -24 -15 -46 -27 -50 -27 -5 0 -26 -12 -48 -27 -22 -15 -65 -40 -95 -56 -30 -16 -67 -38 -83 -49 l-27 -20 2 -416 c3 -414 3 -416 24 -427 12 -6 28 -16 35 -22 8 -6 39 -24 69 -40 68 -37 313 -178 360 -208 19 -12 83 -50 142 -84 l107 -62 33 17 c18 9 44 25 58 34 14 10 52 32 85 50 66 35 128 70 312 178 68 40 125 72 129 72 3 0 29 17 57 37 l50 37 -33 25 c-18 15 -67 44 -109 67 l-75 41 -76 -45 c-41 -24 -100 -58 -130 -74 -30 -17 -67 -39 -82 -49 -14 -11 -29 -19 -32 -19 -3 0 -44 -23 -92 -51 l-86 -51 -61 33 c-34 18 -73 41 -86 51 -13 10 -27 18 -32 18 -5 0 -81 43 -169 95 l-160 96 0 289 c0 208 3 290 11 290 6 0 30 12 53 26 73 45 371 221 404 238 39 20 20 29 387 -185 39 -22 88 -52 111 -65 l40 -23 50 26 c72 38 157 97 158 108 1 9 -95 69 -319 200 -55 32 -120 70 -145 85 -106 64 -238 140 -241 140 -2 -1 -26 -12 -54 -26z"/>
 <path d="M8365 2924 c-11 -9 -74 -46 -140 -84 -66 -37 -138 -79 -160 -92 -22 -14 -89 -53 -150 -88 -60 -34 -121 -70 -135 -80 -14 -10 -45 -27 -68 -39 l-42 -21 0 -425 0 -425 23 -9 c13 -5 65 -34 115 -65 51 -31 95 -56 97 -56 2 0 24 -13 48 -30 25 -16 49 -30 54 -30 6 0 29 -13 51 -30 23 -16 45 -30 48 -30 3 0 51 -27 106 -60 54 -33 102 -60 105 -60 3 0 21 -11 39 -25 40 -31 44 -31 88 -2 19 12 63 38 97 57 58 33 219 126 319 185 25 15 96 56 158 92 l112 65 0 539 c0 350 -4 540 -10 544 -6 3 -40 -10 -78 -31 -37 -20 -83 -45 -103 -56 l-36 -19 -54 36 c-29 19 -57 35 -62 35 -5 0 -28 14 -52 30 -24 17 -46 30 -49 30 -3 0 -51 27 -107 60 -55 33 -103 60 -106 60 -3 0 -16 9 -30 20 -30 24 -51 25 -78 4z m179 -329 c69 -41 128 -75 132 -75 4 0 15 -6 23 -14 9 -8 52 -33 96 -56 44 -24 85 -48 92 -54 8 -8 12 -94 14 -300 l3 -289 -90 -53 c-49 -30 -105 -62 -125 -72 -19 -10 -74 -42 -121 -70 -47 -29 -89 -52 -93 -52 -3 0 -21 -11 -39 -25 l-32 -24 -29 24 c-17 13 -34 24 -39 25 -4 0 -53 27 -108 60 -54 33 -102 60 -107 60 -4 0 -25 13 -47 30 -21 16 -42 30 -46 30 -4 0 -34 16 -68 36 l-60 35 2 287 3 286 71 41 c39 22 77 45 85 51 8 7 39 25 69 41 84 46 234 133 245 144 19 18 46 8 169 -66z"/>
 <path d="M12817 2533 c-4 -3 -7 -282 -7 -620 0 -516 2 -614 14 -619 15 -6 93 31 174 82 l52 34 0 75 c0 41 3 75 6 75 5 0 126 -67 164 -90 8 -6 38 -22 65 -36 28 -14 64 -37 82 -50 17 -13 34 -24 37 -24 3 0 36 -18 72 -41 63 -38 68 -40 98 -28 34 14 225 121 266 149 15 10 48 29 75 44 28 14 122 68 210 119 l160 94 3 417 c2 368 0 417 -13 422 -9 4 -23 0 -33 -9 -9 -8 -42 -27 -72 -42 -30 -15 -70 -39 -87 -53 l-33 -24 0 -288 0 -287 -57 -35 c-32 -20 -76 -45 -98 -57 -22 -12 -72 -41 -111 -64 -222 -131 -223 -131 -258 -114 -45 24 -138 76 -241 136 -49 29 -123 72 -163 94 l-74 42 3 285 c2 157 0 290 -4 297 -9 14 -198 123 -213 123 -6 0 -14 -3 -17 -7z"/>
 <path d="M4366 2513 c-3 -3 -6 -188 -6 -410 0 -469 -7 -442 95 -378 22 14 61 36 88 50 l47 25 0 299 0 299 -42 25 c-109 63 -176 96 -182 90z"/>
 <path d="M10815 2508 c-3 -7 -4 -193 -3 -413 3 -457 -2 -435 92 -372 29 19 71 44 94 56 l42 21 0 299 0 299 -77 45 c-128 73 -143 79 -148 65z"/>
 <path d="M5677 2503 c-9 -8 -9 -808 -1 -816 7 -7 106 44 134 68 8 7 30 20 48 29 l32 17 0 298 0 298 -62 39 c-52 32 -133 74 -142 74 -2 0 -6 -3 -9 -7z"/>
 <path d="M4366 1653 c-8 -8 -8 -338 0 -346 4 -4 21 4 38 16 35 25 70 45 139 82 l47 25 0 54 c0 53 -1 55 -42 79 -109 63 -176 96 -182 90z"/>
 <path d="M10816 1653 c-8 -8 -8 -338 0 -346 4 -4 21 4 38 16 35 25 70 45 139 82 l47 25 0 54 c0 53 -1 55 -42 79 -109 63 -176 96 -182 90z"/>
 <path d="M5676 1643 c-8 -8 -8 -338 0 -346 4 -4 21 4 38 16 35 25 70 45 139 82 l47 25 0 54 c0 53 -1 55 -42 79 -109 63 -176 96 -182 90z"/>
 </g>
<g id="layer102" fill="#fefefe" stroke="none">
 <path d="M0 2100 l0 -2100 7215 0 7215 0 0 2100 0 2100 -7215 0 -7215 0 0 -2100z m4958 907 c2 -577 5 -707 16 -716 10 -8 22 -5 50 14 20 14 39 25 41 25 2 0 54 29 115 65 61 36 114 65 117 65 4 0 14 6 22 14 9 7 46 30 84 50 l67 36 0 -109 c0 -122 2 -118 -90 -168 -30 -16 -100 -56 -155 -88 -55 -32 -119 -69 -141 -81 -23 -12 -60 -35 -83 -49 l-41 -28 0 -163 c0 -93 4 -165 10 -169 9 -5 61 20 135 64 17 10 73 42 125 71 52 29 125 70 161 91 36 22 68 39 72 39 4 0 7 -49 7 -110 l0 -110 -47 -25 c-27 -14 -55 -30 -63 -35 -40 -26 -221 -130 -227 -130 -4 0 -23 -11 -42 -23 -20 -13 -100 -60 -178 -105 l-143 -81 0 1230 0 1230 93 -50 92 -50 3 -704z m-4570 661 l52 -30 0 -418 0 -419 29 -20 c16 -12 32 -21 35 -21 3 0 51 -27 106 -60 55 -33 102 -60 105 -60 2 0 24 -13 48 -30 25 -16 49 -30 54 -30 6 0 29 -13 51 -30 23 -16 46 -30 52 -30 7 0 10 -143 10 -417 l0 -418 -38 -25 c-64 -42 -264 -160 -271 -160 -4 0 -25 -13 -47 -30 -21 -16 -42 -30 -47 -30 -4 0 -42 -22 -85 -49 -42 -26 -95 -58 -117 -70 -22 -11 -50 -28 -62 -37 l-23 -16 0 1242 0 1242 48 -28 c26 -15 71 -40 100 -56z m9687 -758 c22 -14 52 -31 68 -38 l27 -12 0 -589 c0 -324 3 -592 8 -594 4 -3 36 13 72 34 36 21 92 52 125 70 33 17 68 38 77 46 10 9 23 13 30 10 13 -6 95 -55 154 -92 l32 -19 -90 -53 c-49 -29 -92 -53 -97 -53 -4 0 -25 -13 -47 -30 -21 -16 -43 -30 -48 -30 -10 0 -173 -97 -197 -117 -14 -12 -15 -58 -11 -426 l5 -413 -41 -18 c-22 -10 -66 -36 -98 -57 l-59 -39 -5 415 -5 414 -102 61 c-56 33 -105 60 -108 60 -4 0 -26 13 -50 30 -24 17 -47 30 -50 30 -4 0 -44 22 -89 49 -44 27 -99 58 -121 70 -109 60 -168 97 -168 106 0 8 131 95 169 111 6 3 56 -22 111 -55 56 -34 104 -61 109 -61 4 0 15 -6 23 -14 9 -8 43 -28 76 -45 33 -17 89 -49 123 -71 35 -22 68 -37 73 -34 5 3 9 300 9 704 l0 700 28 -12 c15 -7 45 -24 67 -38z m1981 -30 c56 -33 106 -60 110 -60 4 0 15 -6 23 -14 9 -7 43 -28 76 -46 33 -18 67 -39 76 -46 8 -8 19 -14 22 -14 4 0 51 -26 104 -58 54 -32 115 -66 136 -75 l37 -18 0 -417 0 -417 -22 -15 c-13 -8 -32 -20 -44 -26 -33 -18 -216 -125 -254 -149 -19 -12 -82 -49 -140 -81 -57 -32 -112 -63 -121 -69 -46 -28 -120 -65 -130 -65 -11 0 -308 173 -390 227 -19 12 -38 23 -41 23 -11 0 -233 129 -253 147 -20 18 -20 27 -15 428 l5 410 63 35 c34 19 99 57 145 84 94 56 179 104 292 168 44 25 103 59 130 76 28 17 59 31 69 31 11 1 65 -26 122 -59z m-10094 6 c35 -19 121 -68 192 -110 70 -42 131 -76 134 -76 4 0 30 -16 59 -36 47 -32 54 -34 76 -22 49 27 172 93 180 96 4 2 6 -236 5 -528 l-3 -533 -65 -38 c-36 -21 -92 -52 -124 -70 -33 -17 -71 -39 -85 -49 -14 -9 -75 -46 -136 -80 -60 -35 -130 -75 -155 -90 -25 -15 -68 -40 -96 -56 l-52 -28 -35 27 c-20 15 -38 27 -42 27 -3 0 -50 27 -104 60 -55 33 -103 60 -107 60 -5 0 -27 14 -48 30 -22 17 -43 30 -47 30 -6 0 -148 81 -229 131 -8 5 -32 19 -52 31 l-38 23 0 411 0 412 68 40 c90 53 232 137 312 183 114 66 153 89 235 139 44 27 83 49 87 49 4 1 36 -14 70 -33z m1560 13 c18 -11 83 -50 143 -85 61 -35 126 -73 145 -85 19 -11 85 -49 145 -84 61 -36 124 -73 140 -84 17 -11 42 -26 58 -34 l27 -14 -99 -56 -99 -56 -76 43 c-41 24 -81 48 -88 53 -7 6 -38 24 -68 40 -30 17 -103 58 -162 92 -59 33 -111 61 -115 61 -5 0 -41 -20 -81 -45 -40 -25 -74 -45 -77 -45 -3 0 -27 -15 -54 -32 -49 -33 -90 -57 -231 -134 l-75 -41 -3 -291 -2 -291 32 -24 c18 -13 53 -35 78 -48 25 -13 52 -29 60 -35 8 -6 35 -23 60 -36 68 -37 252 -143 275 -157 24 -15 51 -2 279 133 70 42 131 76 135 76 3 0 30 16 59 36 l53 35 99 -59 100 -59 -43 -24 c-23 -13 -49 -28 -58 -34 -9 -5 -47 -27 -85 -48 -38 -21 -107 -60 -154 -88 -47 -28 -109 -64 -139 -80 -30 -16 -59 -33 -65 -38 -6 -4 -38 -23 -71 -41 -33 -18 -68 -38 -77 -44 -13 -8 -24 -5 -46 11 -15 11 -50 32 -77 47 -28 14 -90 51 -140 81 -49 30 -117 69 -149 86 -33 17 -71 39 -85 49 -14 9 -72 44 -128 76 l-103 59 0 412 0 413 38 20 c78 44 125 71 207 120 47 27 88 50 92 50 4 0 14 6 22 14 9 7 41 27 71 43 30 17 107 60 170 96 63 37 118 67 122 67 4 0 22 -9 40 -21z m3377 -36 c53 -31 116 -68 141 -83 25 -15 90 -53 145 -85 124 -73 299 -176 303 -180 3 -3 -156 -99 -179 -107 -9 -4 -33 4 -55 17 -21 13 -70 42 -109 64 -38 23 -108 63 -155 90 -47 28 -111 64 -143 81 -68 36 -45 44 -267 -90 -80 -48 -163 -97 -185 -109 -22 -12 -58 -32 -80 -45 l-40 -22 -3 -296 -2 -295 170 -102 c94 -55 175 -101 179 -101 5 0 19 -8 32 -18 13 -10 52 -33 86 -51 l61 -33 86 51 c48 28 89 51 92 51 3 0 18 8 32 19 15 10 52 32 82 49 30 16 89 50 130 74 l76 45 74 -41 c130 -72 124 -65 82 -98 -20 -15 -40 -28 -45 -28 -4 0 -62 -32 -130 -72 -184 -108 -246 -143 -312 -178 -33 -18 -71 -40 -85 -50 -14 -9 -40 -25 -58 -34 l-33 -17 -107 62 c-59 34 -123 72 -142 84 -48 30 -292 171 -360 208 -30 16 -62 36 -71 43 -8 8 -21 14 -27 14 -9 0 -12 104 -12 413 l0 413 65 37 c35 20 67 37 70 37 3 0 24 14 47 30 22 17 45 30 50 30 4 0 27 12 51 27 23 15 56 34 72 43 51 27 198 112 235 136 32 20 130 72 139 74 2 0 47 -25 100 -57z m1544 37 c14 -11 27 -20 30 -20 3 0 51 -27 106 -60 56 -33 104 -60 107 -60 3 0 25 -13 49 -30 24 -16 47 -30 52 -30 5 0 33 -16 62 -35 l54 -36 36 19 c20 11 66 36 104 56 l67 37 0 -530 0 -530 -102 -60 c-57 -33 -123 -72 -148 -86 -116 -68 -263 -153 -319 -185 -34 -19 -79 -46 -99 -59 -26 -16 -41 -21 -52 -14 -8 6 -37 22 -65 37 -27 16 -87 50 -131 77 -45 27 -85 49 -88 49 -3 0 -25 14 -48 30 -22 17 -45 30 -50 30 -4 0 -27 12 -51 27 -23 15 -58 36 -78 48 -20 11 -70 40 -112 65 l-77 45 0 412 0 412 33 17 c17 10 43 25 57 34 14 10 75 46 135 80 61 35 128 74 150 88 22 13 94 55 160 92 66 38 129 75 140 84 27 21 48 20 78 -4z m4497 -434 l94 -54 -3 -289 c-2 -233 0 -291 11 -300 7 -6 58 -37 113 -69 55 -31 127 -73 160 -92 86 -50 175 -100 211 -119 35 -17 36 -17 258 114 39 23 85 49 101 59 17 9 65 37 108 62 l77 45 0 290 c0 330 -10 294 102 352 36 19 69 39 73 45 22 35 25 -20 25 -397 l-1 -408 -77 -43 c-70 -38 -245 -139 -332 -191 -99 -59 -259 -148 -286 -159 -30 -13 -35 -11 -98 27 -36 23 -69 41 -72 41 -3 0 -20 11 -37 24 -18 13 -54 36 -82 50 -52 27 -90 49 -186 104 -31 17 -59 29 -62 25 -4 -3 -7 -43 -7 -88 l0 -81 -62 -36 c-71 -40 -124 -68 -133 -68 -3 0 -5 272 -5 605 0 333 3 605 8 605 4 0 50 -24 102 -54z m-8492 -7 c31 -17 72 -40 90 -51 l32 -20 0 -287 0 -288 -61 -36 c-34 -21 -65 -37 -69 -37 -4 0 -13 -7 -20 -15 -7 -8 -19 -15 -26 -15 -12 0 -14 65 -14 390 0 215 2 390 6 390 3 0 31 -14 62 -31z m1370 -38 l52 -33 0 -287 0 -288 -52 -34 c-56 -36 -115 -69 -123 -69 -3 0 -5 175 -5 390 l0 389 38 -17 c21 -9 61 -32 90 -51z m5112 20 l85 -48 3 -291 2 -291 -37 -20 c-21 -11 -58 -34 -83 -50 -25 -17 -51 -31 -57 -31 -10 0 -13 85 -13 390 0 215 3 390 8 390 4 0 45 -22 92 -49z m-6482 -842 c124 -68 122 -66 122 -115 0 -40 -3 -45 -37 -64 -21 -11 -56 -31 -78 -45 -22 -13 -48 -29 -57 -35 -17 -10 -18 -1 -18 140 0 82 2 150 6 150 3 0 31 -14 62 -31z m6450 0 c124 -68 122 -66 122 -115 0 -40 -3 -45 -37 -64 -21 -11 -56 -31 -78 -45 -22 -13 -48 -29 -57 -35 -17 -10 -18 -1 -18 140 0 82 2 150 6 150 3 0 31 -14 62 -31z m-5140 -10 c124 -68 122 -66 122 -115 0 -40 -3 -45 -37 -64 -21 -11 -56 -31 -78 -45 -22 -13 -48 -29 -57 -35 -17 -10 -18 -1 -18 140 0 82 2 150 6 150 3 0 31 -14 62 -31z"/>
 <path d="M447 2563 c-11 -11 -8 -921 3 -928 10 -6 78 28 205 103 l80 47 3 306 2 306 -82 49 c-46 27 -104 61 -130 75 -26 14 -54 31 -61 37 -8 7 -17 9 -20 5z"/>
 <path d="M11810 2655 c-150 -91 -173 -104 -293 -174 l-107 -63 2 -291 3 -292 70 -43 c39 -23 95 -56 125 -73 30 -16 111 -63 180 -104 69 -41 134 -74 145 -74 11 -1 79 34 150 76 72 42 157 92 190 110 33 19 85 49 115 68 l55 33 5 289 c5 240 3 291 -9 305 -8 10 -63 46 -123 80 -60 35 -137 79 -171 99 -179 103 -207 119 -219 118 -7 0 -60 -29 -118 -64z"/>
 <path d="M1820 2648 c-36 -22 -85 -51 -110 -64 -25 -14 -61 -34 -80 -45 -39 -23 -192 -115 -227 -136 l-23 -13 0 -294 0 -293 120 -71 c65 -40 123 -72 127 -72 4 0 26 -14 47 -30 22 -17 43 -30 47 -30 4 0 46 -23 92 -51 l85 -50 53 27 c30 15 67 37 83 48 17 11 44 27 60 36 42 22 193 108 236 135 19 12 47 29 63 39 l27 17 0 299 -1 299 -67 38 c-37 21 -83 45 -103 54 -20 9 -39 24 -42 33 -4 9 -14 16 -23 16 -9 0 -54 23 -100 50 -109 66 -174 100 -188 99 -6 0 -40 -18 -76 -41z"/>
 <path d="M8375 2681 c-11 -11 -161 -99 -245 -144 -30 -16 -62 -35 -70 -42 -8 -6 -42 -27 -75 -45 -114 -63 -105 -32 -105 -356 l0 -283 33 -24 c17 -13 59 -39 91 -56 33 -18 70 -41 84 -52 14 -10 28 -19 33 -19 4 0 53 -27 107 -60 55 -33 104 -60 108 -60 5 -1 22 -12 39 -25 l29 -24 32 24 c18 14 36 25 39 25 4 0 44 22 89 49 44 27 100 60 123 73 127 70 191 108 212 126 l25 19 -3 294 c-2 338 13 293 -125 368 -45 23 -88 49 -97 57 -8 8 -19 14 -23 14 -4 0 -63 34 -132 75 -123 74 -150 84 -169 66z"/>
 </g>

</svg>