<?xml version="1.0" standalone="no"?>
<!DOCTYPE svg PUBLIC "-//W3C//DTD SVG 1.1//EN" "http://www.w3.org/Graphics/SVG/1.1/DTD/svg11.dtd" >
<svg xmlns="http://www.w3.org/2000/svg" xmlns:xlink="http://www.w3.org/1999/xlink" version="1.1">
<metadata></metadata>
<defs>
<font id="ballparkweiner" horiz-adv-x="572" >
<font-face units-per-em="2048" ascent="1637" descent="-411" />
<missing-glyph horiz-adv-x="464" />
<glyph horiz-adv-x="0" />
<glyph unicode="&#xd;" horiz-adv-x="464" />
<glyph unicode=" "  horiz-adv-x="464" />
<glyph unicode="&#x09;" horiz-adv-x="464" />
<glyph unicode="&#xa0;" horiz-adv-x="464" />
<glyph unicode="!" horiz-adv-x="468" d="M-7 123q0 56 40 115q61 91 153 91q37 0 70 -20q46 -30 47 -93q0 -71 -49.5 -143.5t-132.5 -72.5q-59 0 -93.5 36t-34.5 87zM238 472q0 121 135.5 427.5t330.5 328.5q30 4 52 4q76 0 77 -44q0 -26 -21 -67q-72 -143 -215 -366q-165 -262 -242 -328q-50 -41 -86 -31 q-31 9 -31 76z" />
<glyph unicode="&#x22;" horiz-adv-x="735" d="M0 955q0 17 13 26q24 13 91 56q33 22 34 52q0 22 -27 63t-27 84q0 67 44.5 124.5t122.5 57.5q63 0 104 -39q33 -32 33 -89q0 -97 -78 -203q-56 -74 -145 -126q-76 -45 -120 -45q-45 0 -45 39zM346 955q0 17 13 26q24 13 91 56q33 22 33 52q0 22 -27 63t-27 84 q0 67 45 124.5t123 57.5q63 0 104 -39q33 -32 33 -89q0 -97 -78 -203q-56 -74 -145 -126q-76 -45 -121 -45t-44 39z" />
<glyph unicode="&#x26;" horiz-adv-x="1471" d="M2 286q0 242 351 478q0 -2 -4 46q-19 236 145 385q136 122 294 124q93 0 152 -66q46 -52 47 -114q0 -95 -91 -169q-102 -84 -240 -163q43 -143 123 -283q72 -125 147 -208q102 117 102 214q0 41 -23 70q-43 59 -83 60q-7 0 -24 -4t-26 -4q-56 0 -56 37q0 17 13 38 q56 82 74 98q56 48 147 41q307 -24 387 0q98 32 120 48q15 13 32 13q32 0 32 -44q0 -11 -4 -28q-11 -61 -84 -128q-59 -58 -119 -82q-32 -13 -76 -13q-46 0 -123 18q-41 11 -98 12q45 -59 39 -183q-4 -85 -136 -247q61 -46 136 -50q80 -4 184 56q91 54 139 115q33 43 71 43 q28 0 28 -28q0 -20 -21 -48q-65 -91 -319 -298q-113 -93 -238 -93q-117 0 -227 82q-171 -112 -346 -111q-426 0 -425 386zM290 426q0 -113 85.5 -210t195.5 -97q40 0 83 13q-210 255 -273 498q-91 -93 -91 -204zM615 1026q0 -45 9 -97q151 104 151 201q0 69 -35 74 q-56 2 -97 -57q-28 -41 -28 -121z" />
<glyph unicode="'" horiz-adv-x="406" d="M0 955q0 17 13 26q24 13 91 56q33 22 34 52q0 22 -27 63t-27 84q0 67 44.5 124.5t122.5 57.5q63 0 104 -39q33 -32 33 -89q0 -97 -78 -203q-56 -74 -145 -126q-76 -45 -120 -45q-45 0 -45 39z" />
<glyph unicode="," horiz-adv-x="362" d="M-89 -134q0 19 13 28q22 13 91 56q33 22 33 52q0 22 -27 63t-27 84q0 67 45 124.5t123 57.5q63 0 104 -39q33 -32 33 -89q0 -97 -78 -203q-56 -74 -145 -126q-76 -45 -121 -45t-44 37z" />
<glyph unicode="-" d="M128 563q0 32 23 67q32 50 81 50h339q72 0 72 -78q0 -30 -28 -67q-33 -43 -78 -43h-338q-71 0 -71 71z" />
<glyph unicode="." horiz-adv-x="384" d="M2 106q0 56 39 119q54 85 143 85q63 0 98 -44q30 -37 30 -88q0 -54 -50 -119q-59 -76 -136 -76q-125 0 -124 123z" />
<glyph unicode="0" horiz-adv-x="925" d="M-4 301q0 182 134 446q104 206 273 331q160 117 312 117q45 0 86 -11q206 -61 206 -283q0 -158 -106 -399q-82 -184 -252 -338q-191 -171 -363 -171q-71 0 -132 31q-158 82 -158 277zM258 229q0 -115 86 -116q84 0 206 155q102 128 177 284q141 299 141 407q0 82 -56 113 q-20 13 -44 13q-127 1 -357 -423q-152 -279 -153 -433z" />
<glyph unicode="1" horiz-adv-x="406" d="M0 701q0 4 28 83q22 50 65 75q52 7 292 106q197 97 280 210q11 15 49 18q39 2 59.5 -14t20.5 -45q0 -37 -36.5 -86.5t-118.5 -214.5q-65 -136 -130 -270q-39 -80 -102 -254q-54 -154 -69 -175q-43 -56 -154 -102q-58 -24 -104 -25q-67 0 -67 47q0 59 151 379 q65 139 195 351q-32 -19 -140.5 -70t-164.5 -51q-54 0 -54 38z" />
<glyph unicode="2" horiz-adv-x="997" d="M-76 61q0 39 85 136q41 46 301 225q169 117 340 347q52 72 52 157q0 61 -26 98q-20 30 -65 30q-65 0 -115 -50q-28 -28 -54 -114q-26 -91 -37 -106q-22 -30 -61 -52t-60 -18q-52 11 -52 78q0 19 8 37q56 147 206 266q54 43 152 78q113 41 209 41q132 0 189 -80 q65 -89 65 -175q0 -130 -154 -271q-128 -121 -416 -290q2 -22 13 -43q26 -50 102 -78q19 -7 39 -8q61 0 167 84q30 22 60 9q32 -15 14 -59q-13 -33 -105 -141q-113 -130 -231 -155q-33 -7 -74 -7q-110 0 -151 37q-121 106 -187 106q-26 0 -73 -46q-22 -28 -45 -58 q-32 -37 -46 -37q-19 0 -34.5 18.5t-15.5 40.5z" />
<glyph unicode="3" horiz-adv-x="942" d="M2 232q0 113 89 218q52 50 104 98q35 35 76 10q28 -17 -5 -51q-15 -15 -80 -68q-32 -26 -59 -84t-27 -106q0 -41 21 -61q48 -48 108 -49q138 0 241 203q46 89 47 162q0 95 -51 100q-78 11 -85 54q-4 26 26 41q22 11 149 50q177 56 200 255q6 43 -25.5 66t-76.5 23 q-35 0 -63 -13q-39 -17 -54 -86q-20 -84 -26 -91q-41 -58 -89 -57q-19 0 -41 7q-37 13 -37 58q0 82 102 178.5t322 135.5q17 4 33 3q87 0 166 -63t96 -161q24 -139 -242 -331q46 -76 47 -179q0 -130 -82 -262q-76 -123 -247 -187q-128 -48 -234 -49q-269 0 -299 192 q-4 22 -4 44z" />
<glyph unicode="4" horiz-adv-x="925" d="M-2 455q0 110 194 339.5t555 380.5q100 43 165 42q28 0 50 -8l21 -8q22 0 22 -38q0 -19 -13 -33q-30 -48 -109 -156q-110 -134 -197 -381q113 17 141 35q46 32 67 32q35 0 35 -34q0 -11 -22 -54q-41 -78 -104 -119q-24 -15 -164 -14q-20 -78 -26 -151q-4 -61 -11 -82 q-19 -56 -106 -134q-45 -39 -100 -39q-87 0 -87 95q0 63 31 190q15 61 39 119q-39 -6 -163 -32q-91 -19 -132 -18q-85 0 -86 68zM281 615q-1 -16 5 -31q19 -48 141 -34q54 125 125 238q89 145 89 175q0 35 -28 35q-33 0 -197 -169q-136 -141 -135 -214z" />
<glyph unicode="5" horiz-adv-x="908" d="M-2 262q0 85 34 143q39 71 117 71q106 0 106 -115q0 -104 -82 -114q-4 -9 -4 -22q0 -58 69 -84q9 -4 18 -3q59 0 147 113q72 93 89 147q41 132 41 197q0 74 -41 98q-30 17 -55 17q-32 0 -63 -24q-20 -19 -41 -37q-54 -45 -90 -26q-28 15 -20 79q11 106 74 222 q87 160 127 215q26 37 39 47q30 22 85 29q33 4 81.5 -18t99.5 -22q35 0 79 9q30 6 71 26q33 17 41 15q20 -7 20 -37t-16 -88q-35 -130 -210 -156q-56 -9 -195 56q-24 -15 -41 -34q-43 -46 -51 -102q162 13 236 -20q67 -30 127 -101q74 -87 74 -178q0 -24 -5 -46 q-72 -320 -331 -473q-89 -52 -212 -52q-165 0 -249 88q-69 71 -69 180z" />
<glyph unicode="6" horiz-adv-x="853" d="M2 361q0 214 95 369q210 346 500 452q84 30 158 30q112 0 182 -62q63 -56 55 -113q-7 -63 -42 -104q-39 -46 -101 -47q-15 0 -31 4q-65 13 -65 78q0 37 22 64t58 24q-26 35 -67 35q-59 0 -164 -84q-139 -113 -191 -275q78 46 169 47q85 0 143 -43q113 -84 113 -232 q0 -69 -28 -125q-191 -388 -473 -388q-41 0 -84 7q-249 45 -249 363zM256 256q0 -95 75 -107q54 -9 115 76q48 67 71 136q30 93 29 150q0 91 -74 99q-109 9 -165 -142q-50 -136 -51 -212z" />
<glyph unicode="7" horiz-adv-x="507" d="M-2 138q0 190 229 483q98 124 247 271q-4 0 -15 5.5t-17 5.5q-74 35 -128 39q7 0 -87 0q-39 0 -63 -18q-13 -17 -28 -32q-50 -50 -80 -39q-33 11 -34 50q0 54 63 145q95 136 196 136q45 0 173 -43t159 -43q54 0 85 16t75 59q46 0 47 -47q0 -61 -138 -178 q-82 -71 -171 -205.5t-134 -255.5q-26 -71 -29 -160q-4 -95 -12 -121q-17 -58 -120 -141q-85 -69 -140 -69q-26 0 -41 19q-37 50 -37 123z" />
<glyph unicode="8" horiz-adv-x="797" d="M-15 279q0 48 15 102q39 147 323 281q-48 121 -48 223q0 219 221 284q97 28 175 28q128 0 193 -73q52 -61 52 -146q0 -32 -7 -60q-28 -97 -268 -212q106 -175 121 -340q9 -112 -100 -234q-134 -152 -340 -138q-336 22 -337 285zM180 316q0 -177 142 -195q17 -2 33 -2 q123 -1 123 137q0 71 -116 318q-98 -48 -135 -93q-46 -58 -47 -165zM537 955q0 -84 54 -171q125 76 156 138q22 43 22 85q0 80 -81 95q-13 2 -26 2q-56 0 -90.5 -41t-34.5 -108z" />
<glyph unicode="9" horiz-adv-x="886" d="M-2 208q0 63 38 115t98 52q17 1 37 -3q43 -6 69 -43t16 -63q-20 -58 -50 -80q-6 -4 -5 -11q0 -13 19.5 -31t39.5 -19q117 -17 232 176q102 173 119 210q-80 -69 -193 -69q-106 0 -175 62q-76 69 -72 187q7 199 162.5 353.5t352.5 154.5q80 0 156 -30q188 -72 188 -353 q0 -225 -118 -376q-145 -186 -263 -282q-201 -160 -413 -160q-28 0 -56 2q-78 7 -130 69.5t-52 138.5zM466 684q0 -98 80 -102q82 -4 127 76q20 37 54 163q37 141 37 164q0 54 -56 78q-15 7 -30 7q-93 0 -171 -208q-41 -106 -41 -178z" />
<glyph unicode=":" horiz-adv-x="362" d="M-6 121q0 56 39 119q55 85 144 85q63 0 98 -44q30 -37 30 -88q0 -54 -50 -119q-59 -76 -136 -76q-125 0 -125 123zM204 682q0 58 41 121q54 85 143 85q63 0 99 -44q30 -39 30 -89q0 -54 -51 -119q-59 -76 -135 -77q-126 0 -127 123z" />
<glyph unicode=";" horiz-adv-x="362" d="M-89 -134q0 19 13 28q22 13 91 56q33 22 33 52q0 22 -27 63t-27 84q0 67 45 124.5t123 57.5q63 0 104 -39q33 -32 33 -89q0 -97 -78 -203q-56 -74 -145 -126q-76 -45 -121 -45t-44 37zM195 682q0 58 39 121q54 85 145 85q63 0 99 -44q28 -37 27 -89q0 -54 -50 -119 q-59 -76 -133 -77q-126 0 -127 123z" />
<glyph unicode="?" horiz-adv-x="468" d="M-2 123q0 54 41 115q61 91 152 91q38 0 71 -20q46 -28 47 -92q0 -71 -50.5 -144t-132.5 -73q-59 0 -93.5 36t-34.5 87zM132 952q0 93 85 180q113 117 322 117q134 0 212 -97q61 -78 61 -169q0 -72 -69.5 -145.5t-190.5 -125.5q-108 -46 -152 -80q-37 -28 -42 -58.5 t-9 -60.5q-9 -48 -47 -82.5t-73 -34.5q-67 0 -67 70q0 95 142 243t159 168q65 84 65 167q0 46 -32 75q-28 22 -61 22t-67 -26q-39 -32 -39 -71q0 -50 35 -89q13 -13 13 -39q0 -41 -28 -59q-51 -36 -94 -36q-50 0 -86.5 35.5t-36.5 95.5z" />
<glyph unicode="A" horiz-adv-x="1700" d="M0 281q0 147 82 223q67 59 160 61h6q56 0 98 -40q44 -42 44 -103q0 -63 -43.5 -109.5t-104.5 -46.5q-11 -22 -10 -54q2 -38 24 -58q39 -35 106 -35q87 0 155 56q78 65 208 243q-243 115 -244 288q0 247 227 316q35 11 80 11q160 0 290 -100q212 268 492 400 q175 81 331 81h4q121 0 162 -41q31 -31 31 -55q0 -10 -3.5 -23t-3.5 -16q0 -11 -45 -77q-58 -84 -305 -552q-59 -112 -178 -358q-82 -167 -104 -192q-48 -56 -154 -100q-30 -13 -90 -13q-61 2 -76 22q-20 32 -20 43q0 33 33 110q0 19 5.5 76t5.5 97q0 247 -42 367 q-28 -43 -129 -239q30 -2 62 -6q41 -7 41 -31q0 -20 -43 -41q-50 -22 -115 -23l-4 -7q-104 -208 -294 -310q-138 -72 -269 -73q-20 0 -37 2q-113 17 -205 78q-128 87 -128 229zM584 729q0 -113 74 -158q30 -19 57 -38q42 -22 77 -29q69 104 228 343q-121 97 -245 97 q-85 0 -132 -58q-59 -74 -59 -157zM1182 794q78 -177 95 -394q147 264 323 531q100 154 190 271q35 46 35 73q0 28 -41 28q-22 0 -59 -10q-160 -41 -311 -211q-136 -152 -232 -288z" />
<glyph unicode="B" horiz-adv-x="1728" d="M-6 320q0 147 116 228q46 33 100 34q59 0 101 -40t42 -96q0 -71 -52 -104q-95 -61 -95 -115q0 -22 17 -47q27 -42 92 -42h3q52 0 109 31q108 59 190 169q50 69 162 270q132 236 239 399q139 214 275 346q-52 11 -105 11q-125 0 -244 -52q-184 -78 -271 -175 q-76 -84 -101 -206q-6 -28 -5 -54q0 -119 111 -150q59 -17 60 -56q0 -56 -54 -74q-15 -6 -34 -6q-76 0 -128 71q-59 82 -59 184q0 56 35 191q35 130 219 269q225 167 487 168q121 0 216 -15q138 76 165 84q41 11 64 11q18 0 27 -6q11 -7 11 -19q0 -22 -52 -55 q-20 -13 -74 -49q128 -46 219 -178q35 -50 36 -136q0 -126 -54 -195q-69 -87 -177 -141q63 -61 86 -113q26 -59 26 -132q0 -121 -71 -275q-50 -113 -180 -187.5t-260 -74.5q-97 0 -162 46q-119 85 -145 193q-141 -175 -292 -230q-80 -30 -204 -30q-87 0 -175 37 q-95 41 -141 106q-72 100 -73 205zM1004 230q58 -55 120 -55h2q71 0 149 80q39 41 78 122q46 104 46 194q0 20 -3 40q-13 93 -58 116q0 2 -84 15q-52 0 -52 57q0 59 75 73q59 2 119 5q119 15 165 201q6 22 6 46q0 106 -82 158q-24 15 -56 30q-41 -41 -83 -95 q-59 -74 -121 -265q-85 -255 -140 -372q69 32 104 41q17 4 30 3q41 0 41 -39t-59 -50q-72 -13 -166 -100q-57 -53 -57 -133q0 -48 26 -72z" />
<glyph unicode="C" horiz-adv-x="1191" d="M-9 1013q0 39 9 82q19 91 134 161q101 63 200 63h17q106 -4 225 -66q281 252 505 252h14q333 -9 332 -265q1 -171 -137 -331q-116 -137 -308 -211q-169 -65 -359 -65q-26 0 -52 1q-6 -43 -6 -84q0 -227 158 -268q33 -9 65 -9q199 0 325 281q19 30 71 30q20 0 20 -56 q0 -54 -55 -166q-59 -119 -160 -213q-158 -151 -350 -151q-102 0 -208 43q-238 97 -238 414q0 121 36 253q-238 100 -238 305zM85 1015q0 -127 171 -214q78 214 249 385q-95 39 -176 39q-126 0 -203 -95q-41 -50 -41 -115zM587 725q177 11 342 124q138 93 234 231 q85 125 86 197q0 17 -6 28q-43 74 -111 74q-125 0 -335 -266q61 -50 115 -104q10 -13 10 -26q0 -17 -19 -30q-13 -7 -26 -7q-20 0 -33 19q-20 28 -93 85q-39 -54 -73 -106q-56 -84 -91 -219z" />
<glyph unicode="D" horiz-adv-x="1778" d="M0 227q0 54 59 106q74 65 192 65v-4q184 -2 342 -93q30 39 65 125q-292 139 -292 457q0 50 15 161q9 74 85 183q93 136 225 213q149 87 321 87q21 0 42 -1q178 -13 319 -91q56 32 106 55q87 41 156 41q65 0 75 -26q2 -4 2 -7q0 -22 -117 -82q-33 -17 -92 -74 q171 -151 238 -374q35 -117 36 -262q0 -387 -248 -594q-162 -136 -390 -136q-204 0 -401 98q-163 -122 -363 -122h-3q-203 0 -305 117q-67 78 -67 158zM136 219q0 -35 41 -67q50 -39 102 -39q71 0 226 103q-100 59 -243 87q-9 1 -18 1q-34 0 -66 -20q-42 -26 -42 -65z M448 888v-7q0 -119 71 -219q64 -97 174 -151q80 203 201 398q164 264 333 414q-123 72 -264 73q-206 0 -358.5 -150t-156.5 -358zM849 178q51 -13 116 -13q23 0 48 2q240 13 359 244q93 178 102 468v16q0 166 -99 296q-30 -39 -91 -117q-48 -61 -119 -253 q-104 -288 -124 -336q82 30 148 93q89 84 90 206q0 35 46 36q22 0 24 -2q7 -7 15 -45q2 -9 2 -19q0 -44 -32 -117q-43 -98 -109 -154q-126 -106 -242 -124q-45 -82 -134 -181z" />
<glyph unicode="E" horiz-adv-x="1087" d="M-2 444q0 54 13 102q30 117 198.5 261.5t307.5 170.5q-95 78 -95 191q0 33 9 69q32 117 186 189q141 67 310 67q161 0 289 -82q115 -73 115 -155q0 -10 -2 -19q-26 -165 -266 -166q-52 0 -95.5 24.5t-49.5 46.5q-13 56 -13 43q0 19 24 33.5t45 14.5q26 0 100 -41 q30 -17 54 -17q50 0 80 67q4 7 4 21q0 104 -147 104h-17q-134 -4 -186 -32q-59 -32 -104 -134q-16 -35 -16 -66q0 -82 81 -114q54 5 94 5q56 0 87 -10q104 -39 104 -90q0 -11 -4 -26q-13 -50 -87 -78q-49 -18 -94 -18q-15 0 -29 2q-61 9 -192 59q-85 -54 -148 -115 q-154 -145 -177 -305q-4 -30 -3 -56q0 -138 100 -206q68 -45 148 -45h10q85 4 165 52q106 63 136 170q19 65 19 111q0 93 -90 119q-10 3 -22 3q-23 0 -52 -12q-65 -26 -91 -101q-43 -120 -73 -120h-1q-46 0 -46 46q0 6 1 13q9 72 52 145q71 117 193 126q12 1 23 1 q154 0 213 -166q7 -20 8 -48q0 -158 -132 -322q-162 -197 -403 -197q-271 0 -417 164q-117 134 -117 321z" />
<glyph unicode="F" horiz-adv-x="1347" d="M0 134q0 154 128 247q33 24 76 24q169 0 170 -121q0 -58 -54 -115q-66 -71 -66 -113q0 -4 1 -8q15 -85 85 -85q82 0 182 80q141 113 234 345q31 77 51 123q-95 0 -175 115q-65 -24 -127 -24q-97 0 -165.5 84.5t-68.5 201.5q0 227 193.5 388t466.5 161q110 0 186 -23 q264 -78 390 -78q106 0 156 75q17 26 47 26q38 0 38 -55q0 -8 -1 -16q-11 -134 -90 -226t-194 -92q-125 0 -338 86.5t-339 86.5q-167 0 -289 -103t-122 -237q0 -95 32 -134q41 -50 108 -50q43 0 80 22h2q0 80 24 141q32 82 106 82q7 0 15 -2q66 -20 66 -96q0 -22 -7 -45 q-28 -74 -65 -115q17 -24 65 -60h56q162 348 260 387q89 35 110 35q42 0 42 -35q0 -19 -17.5 -40t-34.5 -40q-33 -50 -39 -63q-30 -63 -48 -166q56 9 100 10q132 0 132 -82q0 -54 -28 -89q-26 -22 -50 -45.5t-50 -23.5q-22 0 -22 17q2 7 2 15q0 24 -16 42.5t-31 18.5 q-2 0 -20.5 -2t-35.5 -2q-33 -253 -128 -414q-98 -167 -245 -261t-311 -94q-177 0 -302 100.5t-125 241.5z" />
<glyph unicode="G" horiz-adv-x="1254" d="M0 935q0 126 106 215.5t256 89.5q108 0 158 -19q288 258 556 258h4q138 -2 228.5 -72.5t96.5 -176.5q1 -16 1 -32q0 -94 -36 -170q-30 -63 -110 -153q-69 -76 -232.5 -160.5t-274.5 -99.5q26 -74 91 -74q13 0 29 4q134 35 190 120q26 39 87 45q-2 0 84 0h65q37 -7 41 -35 q4 -41 -1 -57t-29 -53q-76 -115 -111 -201q-78 -190 -103 -238q-74 -160 -128 -208q-183 -163 -452 -163h-3q-193 0 -330.5 97.5t-137.5 234.5q0 93 20 145q15 39 62.5 94t134.5 55q69 0 119 -42t50 -101q0 -80 -70 -123q-74 -32 -75 -102q0 -45 41 -75.5t100 -30.5h4 q136 0 249 125q114 126 164 325q-72 -43 -171 -43q-128 0 -230.5 89t-132.5 221q-139 11 -226 105q-84 87 -84 206zM97 940q0 -85 50 -145.5t121 -60.5q17 0 42 8q12 207 129 384q-58 17 -112 17q-89 0 -159.5 -57.5t-70.5 -145.5zM708 782q0 -37 9 -63q54 4 106 26 q125 54 216 195q156 243 156 324q0 52 -46 78q-13 7 -32 7q-65 0 -173 -100q-82 -78 -106 -119q-13 -22 -30 -24q22 -22 71 -91q26 -46 26 -62q0 -35 -41 -35q-24 0 -61 37q-28 28 -50 30q-45 -117 -45 -203z" />
<glyph unicode="H" horiz-adv-x="1687" d="M0 318q0 123 110 228q48 46 113 47q61 0 105 -42t44 -99q0 -95 -77 -125q-68 -28 -68 -93q0 -47 37 -77.5t89 -30.5q54 0 126 51q110 76 205 241q35 61 137 232q-56 -19 -96 -50q-46 -32 -125 -100q-9 -13 -31 -13q-41 0 -41 43q0 6 4.5 15t4.5 13q15 22 110 91 q115 80 193 106q7 0 26 8t28 8l121 199q-175 -97 -285 -97q-82 0 -139.5 52.5t-57.5 124.5q0 147 100.5 251t241.5 104q50 0 51 -30q0 -13 -15 -29q-30 -26 -60 -53q-37 -39 -37 -98q0 -41 31.5 -70t74.5 -29q136 0 336 181q132 119 201 119q58 0 58 -32q0 -13 -13 -28 q-43 -35 -121 -121q-50 -72 -160 -375q15 0 48.5 3t51.5 3q43 0 106 11q136 203 299 355q223 206 402 206q117 0 117 -95q0 -84 -106 -208q-154 -182 -403 -275q-84 -139 -162 -303q-106 -216 -106 -290q0 -30 19 -33q5 -1 10 -1q38 0 86 40q33 35 69.5 72t94.5 84 q19 9 50 -6q17 -24 0 -50q-104 -152 -234 -255q-135 -105 -238 -105h-2q-84 0 -132 68q-42 58 -42 145q0 78 27 147q33 80 67 162l119 236l-80 4q-12 1 -25 1q-36 0 -68 -5q-9 -26 -24 -82q-63 -227 -195 -407q-219 -299 -513 -299q-188 0 -322.5 104t-134.5 251zM1818 972 q128 58 185 124q25 29 64 75q53 71 53 95q0 23 -31 24q-39 0 -112 -95q-91 -117 -159 -223z" />
<glyph unicode="I" horiz-adv-x="1094" d="M-4 292q0 84 49 176q22 43 74 77.5t104 34.5q71 0 108 -67q24 -41 24 -80q0 -98 -125 -151q-11 -6 -25 -30.5t-14 -54.5q0 -39 31 -67t73 -28q126 0 361 286q32 39 56 71q-112 35 -180 115q-74 89 -77 210v8q0 250 242 429q232 175 526 175q172 0 256 -45q54 -28 54 -56 q0 -17 -18 -29q-69 -50 -80 -60q-63 -50 -119 -113t-106 -190q-24 -63 -97 -288q7 4 78 54q56 41 75 41q30 0 29 -26q0 -28 -42 -65q-98 -85 -183 -128q-84 -229 -263 -398q-65 -61 -175 -102q-117 -46 -232 -47q-160 0 -264 88q-139 115 -140 260zM652 769q-1 -10 0 -19 q0 -148 134 -185q45 67 113 190q63 112 108 174q169 236 311 342q-59 30 -151 30q-177 0 -327 -132q-175 -152 -188 -400z" />
<glyph unicode="J" horiz-adv-x="1137" d="M-6 149q0 78 49 169q22 41 73 70.5t103 29.5q80 0 121 -70q24 -43 24 -80q0 -84 -121 -130q-20 -7 -20 -51q0 -50 40 -86t88 -36q147 0 324 278q52 82 89 160q-132 22 -219 114q-93 97 -95 238v8q0 250 254 443q249 190 543 190q169 -1 260 -47q50 -24 50 -52 q0 -17 -20 -31q-119 -85 -219 -201q-112 -126 -210 -465q43 28 74 60q24 24 52 24t30 -24q0 -28 -43 -65q-45 -43 -147 -123q-58 -201 -102 -301q-59 -138 -141 -214q-65 -59 -179 -102q-123 -45 -245 -45q-167 0 -273 88q-139 115 -140 251zM665 769q-1 -11 -1 -21 q0 -80 42 -140q41 -60 112 -84q48 115 94 231q59 126 140 221q190 229 294 299q-58 35 -149 35q-177 0 -335 -137q-182 -158 -197 -404z" />
<glyph unicode="K" horiz-adv-x="1715" d="M-2 307q0 112 60 185q67 82 176 82q46 0 91 -29q54 -35 54 -86q0 -33 -20 -76q-26 -50 -60 -60q-74 -22 -74 -120q0 -89 106 -90q167 0 450 435q112 173 306 482q-212 -160 -351 -160q-65 0 -130 37q-91 52 -91 152q0 197 280 322q52 22 84 22q39 0 39 -28 q0 -45 -76 -104q-39 -30 -39 -74q0 -39 29.5 -70t74.5 -36q11 -1 22 -1q104 0 229 111q56 54 189 171q34 29 69 29h2q43 0 43 -41q0 -30 -28 -65q-132 -171 -260 -550q173 197 330 350q188 180 315 256q134 80 252 80q134 0 134 -125q0 -72 -72 -143q-67 -63 -123 -68 q-13 -1 -25 -1q-38 0 -66 14q-43 22 -89 22q-152 0 -281 -136q-87 -93 -156 -180q24 7 115 30q19 4 39 3q58 0 97 -36t39 -88q0 -17 -4 -34q-19 -76 -74 -256q-6 -19 -6 -35q0 -52 56 -52q48 0 80.5 38t71.5 40q37 2 38 -28q0 -28 -36 -63q-201 -201 -213 -212 q-143 -121 -262 -121q-147 0 -147 145q0 97 66.5 252t66.5 203q0 46 -37 58q-13 5 -51 5h-14h-4q-33 0 -72 -14q0 -7 -7.5 -24t-7.5 -27q-93 -308 -275 -477t-411 -169q-206 0 -334 124q-108 106 -108 231z" />
<glyph unicode="L" horiz-adv-x="1458" d="M0 160q0 84 58 137q65 61 185 62q117 0 311 -64q104 128 188 316q-310 80 -311 352q0 203 167 342q141 119 285 119q115 0 180 -36q26 -15 26 -35q0 -45 -52 -45q-13 0 -24 6q-52 15 -125 15q-121 0 -230 -89q-121 -100 -130 -242q-1 -15 -1 -29q0 -109 49 -170 q61 -74 208 -97q19 41 45 95q113 227 267 389q212 223 428 223q130 0 165 -86q14 -33 14 -72q0 -30 -8 -63q-45 -188 -238 -357q-175 -151 -375 -214q-93 -247 -240 -414q121 -30 234 -30q65 0 115 11q145 32 253 180q28 37 56 37q39 0 39 -46q0 -20 -15 -41 q-119 -169 -171 -223q-132 -139 -257 -139q-162 0 -392 120q-175 -130 -356 -130q-167 0 -264 71q-84 61 -84 147zM119 186q0 -48 40 -79t90 -31q96 0 219 123q-145 72 -241 72q-108 0 -108 -85zM1119 729q128 54 290 211q180 178 180 298q0 35 -21.5 62t-58.5 27 q-39 0 -65 -15q-65 -35 -111 -100q-97 -139 -214 -483z" />
<glyph unicode="M" horiz-adv-x="1754" d="M-6 43q0 52 54 163q20 41 73 143q-95 135 -95 327v12q4 193 117 384q89 149 210 249q19 15 45 32q113 71 221 71q176 0 176 -182q0 -67 -31 -188q-11 -43 -115 -273q277 348 466 412q63 22 108 22q104 0 104 -109q0 -65 -35 -153q-43 -108 -125 -269q316 370 526 370 q125 0 125 -108q0 -56 -36 -139q-112 -210 -256 -500q-20 -48 -21 -77q0 -28 19 -28q23 0 72 40q52 43 136 115q24 24 56 24q20 0 20 -15q0 -19 -35 -59q-91 -106 -199 -192q-147 -115 -247 -115q-136 0 -136 139q0 58 24 112q106 234 171 401q22 58 23 90q0 26 -19 26 q-26 0 -78 -45q-132 -113 -284 -325l-63 -127q-58 -115 -73 -139q-30 -46 -78 -82q-94 -70 -178 -70h-2q-89 0 -89 50q0 26 20 70q80 177 320 627q55 102 55 156q0 35 -22 35q-59 0 -214 -191q-110 -136 -232 -322q-22 -50 -63 -134q35 0 76 17t52 17q35 0 35 -36 q0 -24 -26 -39q-61 -35 -132 -35q-7 0 -22 2h-22q-63 -113 -117 -152q-93 -65 -184 -65q-74 0 -75 63zM113 673q-1 -13 0 -25q0 -118 51 -209q269 532 315 644q22 54 23 92q0 66 -58 66h-2q-13 0 -29 -3l-12 -6q-95 -46 -184 -210q-97 -176 -104 -349z" />
<glyph unicode="N" horiz-adv-x="1263" d="M0 688q33 442 364 669q88 61 204 61h14q221 -6 221 -264q0 -71 -17 -121q-15 -41 -102 -236q154 173 299 279q152 108 247 108q152 0 153 -130q0 -48 -23 -101q-141 -282 -316 -646q-18 -43 -18 -70q0 -35 22 -34q24 0 70.5 39t121.5 111q19 19 52 19q35 2 35 -24 q0 -22 -32 -60q-87 -102 -212 -197q-160 -121 -258 -121q-74 0 -113 58q-33 50 -34 126q0 59 21 106q106 197 256 511q17 41 17 69q0 45 -37 45q-35 0 -91 -47q-125 -106 -320 -385q-28 -59 -76 -159q78 0 121 28q13 7 24 7q37 0 37 -39q0 -26 -26 -41q-59 -33 -134 -33 q-11 0 -30.5 1.5t-28.5 1.5q-72 -136 -129 -174q-85 -61 -202 -62q-71 0 -71 50q0 41 58 162q32 67 78 154q-146 139 -146 307q0 16 1 32zM95 684v-18q0 -139 89 -237q260 519 308 634q17 39 17 73q0 96 -93 96h-2q-26 0 -52 -11q-52 -33 -89 -76q-71 -80 -119 -199 q-55 -134 -59 -262z" />
<glyph unicode="O" horiz-adv-x="1200" d="M2 381q0 368 279 684q273 312 652 388q20 4 39 4q67 0 67 -43q0 -37 -50 -61q-160 -80 -324 -257q-264 -286 -264 -615q0 -340 251 -340q178 0 360.5 272.5t182.5 549.5q0 156 -115 156q-82 0 -181 -121q-120 -144 -120 -343q0 -194 16 -194q2 0 6 2.5t6 2.5q6 0 7 -14 q1 -7 1 -13q1 -25 -17 -49q-22 -30 -53 -31q-33 0 -57 48q-32 67 -32 164q0 112 37 221q52 152 140 264q135 172 310 172h2q123 0 180 -104q39 -72 39 -182q0 -95 -85 -310q-113 -290 -290 -470q-236 -242 -547 -242q-175 0 -288 87q-152 119 -152 374z" />
<glyph unicode="P" horiz-adv-x="1551" d="M-7 251q0 138 83 214q66 57 146 57h3q61 0 103 -41.5t42 -93.5q0 -59 -58.5 -98.5t-64.5 -45.5q-39 -37 -39 -87q0 -85 117 -85q7 -1 14 -1q196 0 494 553q-43 80 -43 126q0 48 37 48q39 0 59 -59l4 -11q193 362 426 553q-113 93 -296 93q-225 0 -383 -152t-158 -374 q0 -160 73 -234q52 -39 104 -76q13 -15 13 -37q0 -59 -56 -60q-26 0 -54 21q-174 122 -174 357q0 263 191 451q203 199 520 199q199 0 344 -95q74 46 162 95q30 17 54 17q37 0 37 -32q0 -35 -50 -59q-71 -33 -127 -75q108 -93 168 -226q54 -123 54 -240q0 -184 -137 -320.5 t-315 -136.5q-113 0 -219 41q-100 -269 -298 -411q-167 -121 -355 -121q-180 0 -300.5 96.5t-120.5 249.5zM1111 563q11 0 36.5 -3.5t38.5 -3.5q119 0 202 126q80 121 80 281q0 130 -69 232q-139 -186 -288 -632z" />
<glyph unicode="Q" horiz-adv-x="1204" d="M-4 396q0 370 272.5 683t649.5 389q20 4 39 4q67 0 67 -43q0 -37 -50 -61q-165 -84 -331 -257q-271 -286 -271 -615q0 -223 119 -301q33 242 193 340q-50 87 -50 192q0 167 111 321q134 180 335 180q123 0 195 -115q56 -93 56 -195q0 -128 -77 -318q-89 -221 -234 -383 q-177 -197 -399 -256q41 -106 135 -154q63 -32 132 -32q113 0 156 95q35 80 95 80q56 0 56 -71q0 -58 -87 -122q-98 -72 -220 -73q-121 0 -225 72t-150 185q-13 0 -42 -3t-44 -3q-165 0 -282 97q-149 125 -149 364zM593 158h24q15 -2 20 -2q182 0 357 237t175 510 q0 87 -45 147q-39 54 -85 54q-91 0 -180 -71q-121 -97 -121 -271q0 -128 56 -175q72 0 94 -11q58 -28 58 -76q0 -63 -93 -63q-48 0 -93 22q-74 -41 -106 -82q-55 -76 -61 -219z" />
<glyph unicode="R" horiz-adv-x="1691" d="M-13 314q0 138 84 212q65 58 146 58q61 0 103 -41t42 -93q0 -59 -59.5 -100t-60.5 -43q-39 -37 -39 -88q0 -52 42 -72q19 -7 73 -13q6 -1 13 -1q205 0 528 612q212 401 457 599q-74 20 -158 20q-238 0 -425 -147.5t-187 -328.5q0 -78 34 -115q20 -22 69.5 -37t62.5 -28 q26 -24 26 -61q-1 -61 -71 -61q-7 0 -15 1q-63 6 -124 73q-76 82 -76 202q0 204 191 389q224 213 571 213h3q125 0 227 -27q59 39 128 79q30 17 56 17q48 0 48 -39q0 -32 -44 -52q-52 -24 -84 -43q154 -72 232 -213q59 -104 60 -197q0 -85 -63.5 -168t-128.5 -104 q-74 -22 -130 -24q19 -15 32 -30q30 -35 33 -66q5 -51 5 -96q0 -56 -8 -100q-6 -26 10 -50t44 -24q39 0 79 54q28 35 67 35q28 0 28 -22q0 -30 -48 -87q-95 -115 -203 -199q-139 -108 -234 -108q-145 0 -145 156q0 87 89 366q22 71 23 110q0 33 -19 50q-17 9 -33.5 23 t-16.5 38q0 52 72 65q117 20 168 51q102 61 102 200q0 156 -138 238q-151 -171 -319 -697q-98 -305 -314 -479q-188 -152 -383 -153q-180 0 -301 97t-121 249z" />
<glyph unicode="S" horiz-adv-x="1161" d="M0 307q0 102 56 180q61 87 165 95q8 1 16 1q68 0 116 -46q46 -46 47 -106q0 -35 -19 -59q-32 -37 -63 -75q-22 -28 -23 -67q0 -126 131 -126q17 0 35 2q184 20 243 121q67 115 67 464v52q-229 67 -331 225q-46 71 -46 127q0 50 43 57q11 2 22 2q41 0 60 -37 q13 -37 26 -76q46 -134 236 -197q37 273 195 422q137 130 338 143q11 1 23 1q94 0 166 -53q100 -71 101 -214q0 -130 -143 -255.5t-335 -164.5q2 -42 2 -81q0 -207 -50 -313q-173 -364 -626 -364q-249 0 -368 126q-84 89 -84 216zM1113 933q8 -118 8 -112q156 35 247 151 q70 90 70 163q0 164 -124 164q-59 0 -125 -78q-77 -94 -77 -248q0 -20 1 -40z" />
<glyph unicode="T" horiz-adv-x="1148" d="M0 151q7 123 74 191q61 65 156 65q59 0 99.5 -38t40.5 -98q0 -61 -80 -111q-56 -35 -56 -84q0 -33 25 -68.5t81 -35.5q78 0 169 67q108 78 197 232q26 45 125 262q87 195 161 305q14 19 157 160q28 28 63 28q46 0 46 -41q0 -28 -30 -63q-58 -69 -91 -201 q-30 -112 -70 -379q-35 -238 -231 -392q-175 -138 -390 -151q-16 -1 -32 -1q-170 0 -295 107q-119 104 -119 232v14zM264 838q0 243 227 435q186 156 412 156q138 0 340 -70q141 -48 242 -49q89 0 110 43q26 58 63 58t37 -73q0 -138 -115 -236q-98 -84 -192 -84 q-111 1 -325 116q-143 76 -279 76q-154 0 -293 -97q-132 -93 -132 -279q0 -74 28 -128q48 -91 174 -91q61 0 101 26q93 65 93 175q-1 41 -21 79q-12 21 -11 40q0 15 7 28q15 28 51 28q46 0 76 -54q15 -26 15 -67q0 -136 -101 -247q-93 -106 -223 -106q-98 0 -182 70 q-102 85 -102 251z" />
<glyph unicode="U" horiz-adv-x="1219" d="M0 834q9 216 147 381q146 175 349 181h12q88 0 157 -56q89 -69 90 -188q0 -72 -34 -158q-80 -203 -143 -349q48 30 95 84q35 39 69 79q28 32 52 32q26 0 26 -35q0 -26 -19 -52q-113 -158 -273 -223q-80 -167 -80 -203q0 -54 43 -54q32 0 70 34q102 89 221 228 q76 151 199 404q46 97 91 143q30 33 95 72q54 33 121 34q78 0 78 -52q0 -17 -7 -36q-119 -256 -337 -762q-17 -43 -17 -69q0 -33 28 -33q46 0 114 71q77 83 108 83h1q33 0 34 -31q0 -28 -76 -112q-91 -100 -201 -180q-134 -100 -212 -100q-151 0 -151 163q0 78 39 184 q-63 -67 -128 -123q-167 -145 -249 -193q-67 -41 -126 -41q-54 0 -99 36q-52 43 -52 111q0 48 24 102q46 98 151 326q-210 85 -210 285v17zM89 842q0 -182 156 -238q72 152 190 414q30 65 30 114q0 91 -93 91q-33 0 -69 -13q-45 -17 -93 -71q-121 -134 -121 -297z" />
<glyph unicode="V" horiz-adv-x="938" d="M-13 1033q0 123 110 233q104 102 228 124q15 2 26 2q43 0 43 -26q0 -20 -24 -35q-93 -59 -93 -140q0 -30 17 -57q28 -46 94 -47q128 0 287 138q184 162 262 174q11 2 19 2q40 0 40 -41q0 -26 -26 -44q-45 -32 -74 -115q-31 -89 -31 -210q0 -23 1 -47q3 -63 3 -119 q0 -124 -14 -212q26 46 57 97q78 121 175 240q301 370 500 446q67 26 110 26q67 0 67 -62q0 -37 -26 -85q-33 -61 -95 -95q-32 -19 -121 -50q-362 -126 -732 -773q-214 -371 -383 -371q-9 0 -17 1q-61 7 -61 43q0 28 45 96q76 119 103.5 231.5t27.5 311.5q0 247 51 355 q-152 -93 -277 -145q-28 -11 -69 -11q-84 0 -147 39q-76 46 -76 126z" />
<glyph unicode="W" horiz-adv-x="1644" d="M-4 1059q0 121 110 231q102 102 227 126q15 4 28 4q43 0 42 -30q0 -20 -24 -35q-93 -59 -93 -138q0 -30 17 -57q28 -46 95 -47q128 0 286 138q121 104 158 132q45 30 87 37q10 2 18 2q45 0 45 -49q0 -30 -27 -48q-91 -64 -91 -299q0 -28 1 -58q2 -45 2 -89 q0 -162 -22 -295q41 43 225 310q74 117 135 255q54 123 101 185q9 13 28 13q39 0 86 -54.5t47 -112.5q0 -78 -27.5 -238t-27.5 -241q0 -84 15 -114q65 173 243 437q195 286 357 422q43 35 72 35q54 0 54 -82q0 -67 -95 -148q-212 -182 -362 -400q-115 -165 -212 -381 q-71 -169 -143 -338q-35 -80 -95 -80q-54 0 -100 60q-78 100 -78 369q0 129 28 246q-46 -71 -106 -143q-98 -121 -110 -136q-143 -186 -284 -312q-138 -125 -201 -125h-7q-59 7 -60 43q0 30 45 98q76 119 103 230.5t27 310.5q0 247 50 357q-154 -97 -275 -147 q-26 -11 -67 -11q-84 0 -149 39q-76 46 -76 128z" />
<glyph unicode="X" horiz-adv-x="1603" d="M2 154q0 126 87 201q74 65 167 65q59 0 93 -30.5t34 -84.5q0 -61 -39 -101q-30 -20 -58 -40.5t-28 -68.5q0 -76 104 -76q95 0 218 106q136 115 344 394q-193 28 -311 124q-145 117 -145 318q0 258 231 366q80 37 152 37q30 0 58 -5q240 -54 310 -460q383 463 587 463 q80 0 121 -39q30 -28 30 -61q0 -45 -43 -102q-58 -82 -156 -82q-24 0 -71.5 8.5t-71.5 8.5q-67 0 -140.5 -64.5t-234.5 -270.5q0 -22 6.5 -69.5t6.5 -71.5q67 24 128 67q26 19 50 18q37 0 37 -29q0 -32 -50 -60t-158 -74q20 -217 50 -286q20 -50 65 -51q37 0 78 34l88 82 q32 30 55 29q26 0 26 -27q0 -22 -20 -47q-26 -32 -162 -177q-69 -74 -147 -118q-73 -43 -126 -43q-11 0 -22 2q-98 19 -136 89q-47 89 -69 353q-229 -281 -376.5 -394t-290.5 -113q-76 0 -139 31q-132 67 -132 249zM539 957q0 -136 101.5 -230.5t283.5 -122.5 q-17 342 -26 400q-24 145 -110 178q-35 13 -73 13q-74 0 -122 -58q-54 -63 -54 -180z" />
<glyph unicode="Y" horiz-adv-x="1260" d="M-4 104q0 108 65 199q72 102 175 102q162 0 162 -150q0 -102 -86 -121q-32 -7 -57 -39t-25 -69q0 -69 86 -108q48 -22 104 -22q173 0 309 163q80 95 154 337q22 74 56 165q-203 -182 -346 -182q-171 0 -171 156q0 58 57 182q-187 43 -187 227q0 260 280 420q80 45 183 45 h13q130 -6 185 -86q35 -50 36 -111q0 -28 -129 -329q6 0 15.5 9t12.5 9q33 20 54 21q30 0 21 -36q-11 -35 -51 -65q-59 -44 -107 -66q-37 -95 -37 -129q0 -30 24 -29q24 0 70 24q85 45 156 141q67 106 136 210q191 281 355 346q44 18 78 18h4q46 0 46 -31q0 -33 -57 -93 q-126 -132 -188 -234q-102 -177 -152 -443q-61 -323 -251 -529q-212 -229 -523 -238h-27q-213 0 -335 107q-108 95 -108 229zM370 955q0 -125 149 -158q7 13 59 114q91 171 91 251q0 71 -72 71q-7 0 -15 -1q-56 -6 -112.5 -58t-82.5 -128q-17 -50 -17 -91z" />
<glyph unicode="Z" horiz-adv-x="1217" d="M-6 46q0 63 84 108q147 76 647 487q364 297 466 431q-11 -7 -31 -7h-1q-102 0 -248 176q-95 113 -229 114q-100 0 -158 -93q-50 -84 -50 -151q0 -126 171 -184q84 -28 84 -97q0 -9 -2 -20q-12 -80 -109 -80h-12q-78 4 -160 86q-88 86 -88 196q0 9 1 19q13 242 212 352 q128 70 296 70h5q134 0 364 -161q43 -30 78 -30q54 0 84 61q13 35 26 71q18 44 53 44h6q67 -6 67 -78q0 -41 -32 -87q-102 -152 -330 -381q-126 -126 -383 -357h2q83 0 124 -156q26 -100 121 -115q5 -1 10 -1q65 0 165 127q20 24 46 24q24 0 28 -20q1 -3 1 -6q0 -21 -25 -57 q-98 -139 -355 -307q-72 -46 -153 -46q-165 0 -198 156q-30 139 -84 139q-22 0 -82 -24q-117 -48 -245 -210q-45 -56 -110 -56q-56 0 -56 63z" />
<glyph unicode="a" horiz-adv-x="981" d="M0 359q0 11 32.5 40.5t62.5 57.5q46 39 141 151q58 82 102 124q82 74 190 106q48 15 106 15q102 0 163 -35q37 74 37 76q28 63 71 74q3 1 6 1q30 0 87 -60q50 -54 50 -104q0 -35 -43 -117q-48 -95 -146 -281q-37 -69 -38 -117q0 -32 13 -39q1 -1 4 -1q17 0 78 49 q61 50 99 93q22 26 28 26q11 0 25.5 -18.5t14.5 -31.5q0 -17 -24 -42t-50 -53q-39 -43 -140 -129t-137 -109q-63 -39 -122 -39q-46 0 -84.5 27t-38.5 83q0 28 9 61q-104 -87 -172.5 -126t-137.5 -39t-113.5 42.5t-44.5 109.5t35 140q-41 -4 -52 6t-11 59zM368 284 q0 -41 33 -41q39 0 114 77q56 59 95 117q89 136 89 204q0 45 -37 45q-50 0 -188 -192q-106 -149 -106 -210z" />
<glyph unicode="b" horiz-adv-x="888" d="M7 355q0 17 36 50q184 177 319 407q113 210 257 459q13 24 28 47q13 17 42 11q54 -7 90 -65q42 -65 42 -104q0 -47 -165 -385q-82 -164 -165 -325q-91 -182 -95 -221q0 -78 72 -78q78 0 138 96q0 4 7.5 11.5t7.5 12.5q-32 50 -32 125q0 106 63 238q56 117 142 187 q33 28 70 28q41 0 71 -27.5t30 -66.5q0 -121 -38 -209q-28 -67 -41 -91q-32 -58 -89 -137q9 -15 30 -4q7 2 17 9q30 26 59 54q48 43 63 43q13 0 34 -17q9 -7 9 -18q0 -45 -130 -153q-50 -41 -106 -41q-34 0 -69 13q-188 -206 -345 -206q-112 0 -169 87q-43 63 -43 144 q0 48 63 178q48 95 97 190q-82 -110 -186 -242q-46 -46 -69 -46q-15 0 -30 15.5t-15 30.5z" />
<glyph unicode="c" horiz-adv-x="739" d="M4 357q0 20 35 48q26 20 126 138q110 126 209 210q123 106 256 106q61 0 117 -23q41 -17 54 -33q43 -50 43 -112q0 -61 -43 -117q-52 -67 -113 -67q-89 0 -90 84q0 28 15 54q20 37 67 44q-20 17 -44 17q-87 0 -205 -227q-74 -145 -74 -226q0 -87 74 -89h4q51 0 128 44 q71 43 125 101q71 74 96.5 91.5t33.5 17.5q13 0 33 -17q9 -7 9 -18q0 -39 -130 -162q-236 -223 -436 -223q-61 0 -110 28q-61 35 -97 110q-24 48 -24 85q0 10 2 19q7 46 13 61q11 30 39 54q-45 -48 -69 -48q-17 0 -30.5 16.5t-13.5 33.5z" />
<glyph unicode="d" horiz-adv-x="957" d="M-24 327q0 24 37 46.5t130 141.5q108 138 203 217q138 117 258 117q76 0 136 -46q117 216 260 468q13 22 28 47q13 17 42 11q52 -7 90 -65q42 -64 42 -104q0 -48 -180 -418q-78 -169 -189 -389q-17 -24 -17 -44q0 -33 39 -34q22 0 37 15q32 35 86 82q26 15 31 15 q13 0 34 -15q9 -7 9 -19q0 -32 -126 -169q-169 -186 -342 -186q-100 0 -132 158q-162 -169 -270 -169q-39 0 -72 19q-78 43 -78 148q0 26 5 54q7 48 13 61q11 30 39 54q-46 -46 -67 -46q-17 0 -31.5 16.5t-14.5 33.5zM362 305q0 -50 39 -50q59 0 177 176q91 138 91 206 q0 43 -37 43q-52 0 -188 -191q-82 -115 -82 -184z" />
<glyph unicode="e" horiz-adv-x="754" d="M0 342q0 22 37 48q20 15 123.5 137.5t211.5 202.5q152 115 271 116q78 0 125 -47q52 -52 52 -111q0 -89 -112 -209q-154 -163 -355 -226q-1 -10 -1 -19q0 -83 75 -85h4q51 0 128 44q72 45 127 101q71 76 96 91.5t30 15.5q15 0 37 -14q9 -7 10 -19q0 -41 -130 -162 q-240 -221 -439 -221q-61 0 -108 26q-63 35 -98 110q-24 49 -24 87q0 9 1 17q7 46 11 61q11 30 41 54q-48 -48 -68 -48q-17 0 -31 16.5t-14 33.5zM452 465q-1 -25 27 -25q30 0 127 103q57 60 57 126q0 32 -22 32q-35 0 -126 -121q-63 -76 -63 -115z" />
<glyph unicode="f" horiz-adv-x="724" d="M-247 -470q0 24 33 67q65 78 69 85q74 91 266 372q-56 54 -56 124q0 39 20 65q58 74 114 75q28 0 56 -19q22 45 96 212q-52 -24 -124 -61q-52 -33 -93 -82q-33 -39 -43 -43q-39 -17 -56 0q-15 11 -15 30q0 17 12 35q41 76 290 220q39 22 91 50q115 281 254 466 q180 240 377 240q175 0 175 -143q0 -132 -141 -297q-92 -108 -389 -257q-13 -32 -111 -269q-35 -87 -87 -201q6 0 72 26q78 32 195 184q14 19 37 19q15 0 34 -8q9 -6 9 -19q0 -17 -15 -46q-7 -17 -260 -257q-71 -67 -165 -91q-186 -349 -337 -475q-69 -58 -186 -58 q-93 0 -115 34q-7 11 -7 22zM758 833q59 28 80 42q41 30 104 110q69 87 82 136q9 33 9 57q0 48 -33 49q-38 0 -71 -45q-48 -65 -171 -349z" />
<glyph unicode="g" horiz-adv-x="971" d="M-145 -349q9 97 128 169q114 55 229 113q45 22 152 63q19 41 19 47q-93 -45 -177 -45q-112 0 -154 65q-20 32 -20 95q0 121 50 171q-33 -24 -62 -26q-28 19 -27 39q0 11 9 22q41 52 139 166q138 151 171 180q149 134 251 134q210 0 210 -65q76 191 130 191q33 0 76 -65 q19 -26 38 -54q17 -29 17 -50q0 -6 -1 -11q-87 -184 -297 -632q63 41 97 74q128 128 139 138q50 48 74 48q33 0 34 -37q0 -32 -41 -78q-139 -154 -364 -275q-234 -505 -448 -558q-74 -18 -140 -18h-7q-112 0 -173 51q-53 44 -53 124q0 12 1 24zM65 -387q0 -46 33 -46 q50 0 103 91t109 212q-167 -69 -219 -169q-26 -52 -26 -88zM362 295q0 -17 26 -27q17 -6 32 -6q78 0 173 171q93 165 93 217q0 20 -19 28q-9 6 -22 6q-69 0 -167 -160q-115 -186 -116 -229z" />
<glyph unicode="h" horiz-adv-x="1074" d="M19 329q-12 28 7 56q6 9 191 210q43 46 139.5 190t156.5 252q43 87 85 173q71 134 112 134q67 0 124 -192q2 -6 2 -15q0 -41 -74 -180q-108 -204 -149 -297q290 186 407 186q39 0 65 -28t26 -69q0 -28 -11 -63q-13 -41 -176 -337q-13 -24 -13 -42q0 -30 39 -30 q33 0 54 17q59 48 105 106q32 39 54 39q37 0 38 -36q0 -13 -15 -33.5t-17 -25.5q-4 -19 -190 -184q-67 -59 -150 -110q-91 -56 -134 -56q-9 0 -17 4q-107 58 -107 126q0 47 42 145q54 121 54 177q0 26 -17 26q-37 0 -158 -158q-143 -188 -230 -255q-6 -4 -100 -50 q-15 -7 -28 -7q-43 0 -67 67q-1 2 -1 4q0 35 114 247q173 318 194 360q-35 -59 -160 -212q-106 -128 -132 -154q-11 -11 -23 -11q-30 0 -40 26z" />
<glyph unicode="i" d="M13 381q37 43 154 190q59 87 121 174q69 97 106 106q50 13 59 13q17 0 36 -22q82 -97 82 -140q0 -50 -77 -217q-70 -154 -70 -200q0 -21 16 -21q20 0 93 76q89 95 123 95q39 0 39 -35q0 -19 -20 -54q-48 -82 -210 -210q-175 -139 -259 -140q-56 0 -91 45q-28 35 -28 69 q0 69 36 154q19 46 128 271q-74 -93 -169 -200q-17 -13 -50 -15q-27 17 -27 38q0 11 8 23zM489 1089q0 80 59 158q56 72 141 72h4q58 0 101 -31q33 -24 33 -86q0 -93 -61.5 -162.5t-148.5 -69.5q-54 0 -91 27t-37 92z" />
<glyph unicode="j" horiz-adv-x="574" d="M-535 -361q0 95 98 171q52 39 179.5 99.5t248.5 105.5q165 316 278 544q-139 -197 -176 -224q-19 -15 -50 -15q-29 17 -29 38q0 11 8 23q37 43 155 190q61 87 120 174q69 97 106 106q50 13 62 11q17 0 33 -20q82 -97 82 -140q0 -54 -76 -217q-61 -138 -142 -308 q6 4 181 163q35 33 68 67q33 28 56 28q37 0 37 -35q0 -19 -21 -56t-140 -147q-145 -136 -251 -182q-93 -236 -350 -493q-76 -76 -245 -76q-158 0 -197 73q-35 63 -35 120zM-322 -368q0 -50 53 -50q35 0 72 65q37 74 74 147q6 12 19 42q-74 -35 -139 -78q-26 -19 -52 -53 q-26 -41 -27 -73zM515 1089q0 78 59 158q56 72 141 72h4q57 0 101 -31q33 -24 33 -86q0 -93 -60.5 -162.5t-149.5 -69.5q-54 0 -91 27t-37 92z" />
<glyph unicode="k" horiz-adv-x="983" d="M-4 336q0 9 4 19q17 32 156 180q82 87 195 246q141 201 197 336q87 214 140 214q56 0 120 -119q22 -41 22 -74q0 -25 -12 -45q-9 -19 -275 -576q324 330 437 330q5 0 9 -1q107 -15 107 -94q0 -44 -33 -105q-46 -84 -113 -84q-20 0 -67 17q-17 9 -35.5 19.5t-29.5 6.5 q-43 -19 -119 -87q54 9 83 9q54 0 62 -28q6 -22 0 -58q-6 -28 -11 -57q-3 -22 -3 -39q0 -38 14 -51q13 -11 29 -11q43 0 90 62q53 70 80 70h1q13 0 25.5 -15.5t12.5 -30.5q0 -17 -13 -30q-54 -59 -110 -121q-102 -110 -165 -150q-108 -71 -199 -71t-103 91q-1 5 -1 10 q0 32 19 100q22 80 22 113t-15 34q-15 0 -45 -36q-65 -80 -132 -161q-97 -115 -126.5 -135t-79.5 -20q-87 0 -88 60q0 71 279 570q-247 -329 -290 -329q-39 0 -39 41z" />
<glyph unicode="l" horiz-adv-x="590" d="M4 342q0 11 3 19q46 48 160 174q52 63 174 244.5t163 257.5q158 302 192 302q1 0 3 -1q28 -11 65 -48t50 -73q19 -46 19 -65q0 -28 -23 -74q-165 -333 -351 -717q-20 -52 -20 -73q0 -30 35 -22q28 6 96.5 75.5t92.5 69.5q41 0 41 -34q0 -17 -9 -28q-56 -59 -111 -120 q-112 -115 -166 -149q-117 -76 -202 -76q-87 0 -129 80q-7 13 -7 35q0 123 201 461q-198 -285 -248 -285q-9 0 -19 16t-10 31z" />
<glyph unicode="m" horiz-adv-x="1460" d="M2 331q0 13 11 28q98 117 243 303q129 201 180 201q3 0 6 -1q33 -7 68 -42.5t42 -68.5q8 -36 8 -68.5t-8 -61.5q-9 -33 -69 -121q65 63 121 113q132 121 193 158l86 52t74 26q50 0 97 -63q7 -11 7 -28q0 -46 -76 -187q91 82 243 200l86 52t74 26q50 0 97 -63q7 -11 7 -28 q0 -45 -87 -212q-123 -234 -123 -278q0 -17 13 -17q39 0 149 89q4 4 41 47q28 32 44 31q11 0 23.5 -14t12.5 -25q0 -19 -56 -80q-45 -50 -158 -147q-125 -108 -171 -127t-97 -19q-108 0 -120 83q-1 6 -1 14q0 65 71 215q50 97 101 193q7 17 7 26q0 11 -11 11q-28 0 -71 -43 q-35 -35 -137 -154q-117 -136 -162 -199t-111.5 -110.5t-116.5 -47.5q-67 0 -67 69q0 32 29 80q45 74 49 82q74 130 159 286q6 15 6 24q0 13 -11 13q-26 0 -69 -43q-35 -35 -137 -154q-117 -136 -162 -199t-111.5 -110.5t-117.5 -47.5q-67 0 -67 69q0 32 30 80q46 76 49 82 q33 69 169 333q-93 -106 -218 -242q-15 -13 -31 -13q-30 0 -30 28z" />
<glyph unicode="n" horiz-adv-x="1029" d="M-4 310q0 15 19 45q97 119 240 307q131 201 180 201q3 0 5 -1q33 -7 68 -42.5t42 -68.5q8 -36 8 -68.5t-8 -61.5q-9 -33 -69 -121q65 63 121 113q132 121 195 158q41 26 84 52t74 26q50 0 97 -63q7 -11 7 -28q0 -45 -87 -212q-123 -234 -123 -275q0 -19 15 -18 q48 0 149 87q2 2 41 48q26 32 42 32q26 0 26 -39q0 -33 -45.5 -83.5t-156.5 -145.5q-126 -108 -172 -127t-96 -19q-108 0 -120 83q-1 5 -1 12q0 93 170 410q7 13 7 22t-13 10q-32 0 -68 -36.5t-138 -155.5q-117 -136 -162 -199t-111.5 -110.5t-117.5 -47.5q-66 0 -66 67 q0 34 29 82q46 76 49 82q33 69 163 327q-217 -257 -254 -257q-22 0 -23 15z" />
<glyph unicode="o" horiz-adv-x="806" d="M-7 346q0 19 14 35q91 115 197 227q164 177 290 234q71 33 138 33q126 0 169 -128q9 -28 9 -65q0 -125 -93 -308q22 -13 23 -52q63 15 100 79q28 28 56 19q30 -11 30 -30q0 -20 -30 -54q-95 -126 -220 -135q-9 -1 -17 -1q-30 0 -51 12q-164 -216 -365 -216 q-95 0 -150.5 61.5t-55.5 165.5q0 45 11 93q-7 -7 -18 -7q-37 0 -37 37zM370 184q13 -6 26 -6q59 0 106 106q-24 43 -24 88q0 26 9 48q19 48 84 48q17 0 37 -3q72 139 72 208q0 52 -50 52q-74 0 -201 -233q-96 -173 -96 -242q0 -49 37 -66z" />
<glyph unicode="p" horiz-adv-x="1014" d="M-355 -466q0 37 52 79q108 89 377 547l285 481q-87 -108 -255 -284q-33 -28 -58 -28q-30 0 -29 30q0 32 37 63q63 54 225 260q134 169 186 245q39 58 72 58q22 0 54 -28q78 -69 78 -130q0 -35 -21.5 -88t-62.5 -129q102 98 251 193q67 43 140 43q91 0 91 -82 q0 -52 -41 -132q-98 -193 -145 -307q-9 -22 -9 -36q0 -25 27 -25q22 0 52 27t101 101q20 22 50 22q33 0 34 -27q0 -22 -30 -56q-165 -188 -320 -275q-71 -41 -145 -41q-130 0 -130 117q0 33 13 74q22 72 63 132q45 54 88 108q37 48 37 87q0 28 -23 28q-33 0 -94 -65 q-71 -74 -175 -208q-26 -48 -80 -152q-195 -374 -236 -437q-110 -165 -236 -204q-74 -22 -123 -23q-46 0 -78 23q-22 15 -22 39z" />
<glyph unicode="q" horiz-adv-x="949" d="M-7 336q0 32 39 71q58 80 206 249q123 123 149 141q97 74 206 75q158 0 176 -99q13 46 80 180q24 37 52 38q41 0 99 -88q30 -46 30 -87q0 -30 -15 -63q-30 -67 -121 -242q-69 -134 -195 -416q102 106 266 286q32 39 66 41q33 2 34 -28q0 -24 -30 -58q-104 -112 -206 -221 q-169 -186 -257 -319q-97 -149 -130 -190q-95 -112 -195 -138q-58 -16 -97 -16h-5q-72 0 -73 52q0 26 19 59q43 78 186 307q93 139 191 307q-184 -164 -310 -164q-37 0 -67 17q-69 41 -69 137q0 72 36 155q-22 -9 -39 -10q-26 0 -26 24zM344 303q0 -45 54 -45q59 0 191 182 q97 132 97 201q0 22 -14 44.5t-35 22.5q-67 0 -189 -191q-104 -160 -104 -214z" />
<glyph unicode="r" horiz-adv-x="702" d="M-7 338q0 17 14 30q80 89 125 145q76 97 130 188q-43 35 -43 87q0 43 28 98q46 89 136 90q33 0 56.5 -18.5t23.5 -58.5q0 -39 -23 -85q22 -13 55 -13q38 0 90 17q82 28 116 28q50 0 59 -43q4 -15 4 -30q0 -32 -18.5 -70t-37.5 -73q-61 -130 -137 -301q-11 -30 -11 -48.5 t11 -25.5q32 0 55 31q45 41 112 108q19 26 50 26q19 0 26 -11q15 -15 15 -26q0 -13 -34 -54q-178 -216 -366 -307q-52 -26 -100 -26q-71 0 -113 50q-37 45 -37 93q0 6 1 12q13 117 190 338q69 85 69 134q0 46 -80 46q-201 -262 -287 -346q-19 -19 -38 -19q-14 0 -27 10 q-15 7 -14 24z" />
<glyph unicode="s" horiz-adv-x="687" d="M11 314q-16 11 -16 25.5t16 32.5q87 102 292 332q84 89 182.5 145t168.5 56q125 0 125 -106q0 -39 -32 -68.5t-67 -29.5q-9 0 -18 1q-24 6 -41 6q-23 0 -35 -12q-20 -20 -21 -46q0 -26 22 -102q4 -9 41 -102q22 -56 22 -104q37 17 71 54q22 26 52 26q39 0 39 -37 q0 -17 -33 -56q-58 -69 -149 -84q-50 -139 -160 -202q-74 -43 -152 -43q-177 0 -227 91q-32 56 -32 112q0 93 73 128q59 28 121 28q35 0 132 -13q6 32 6 98q0 29 -1 65v21q0 89 15 139q-54 -32 -169 -164q-149 -171 -158 -180q-20 -20 -40 -20q-13 0 -27 9zM186 216 q0 -33 35 -52q13 -6 26 -6q62 0 110 98q-72 9 -108 9q-26 0 -33 -5q-30 -19 -30 -44z" />
<glyph unicode="t" horiz-adv-x="650" d="M11 314q-16 10 -16.5 24.5t16.5 33.5q131 145 322 370q-59 0 -60 46q0 15 9 33q20 35 144 36q22 26 33 41q13 22 138 228q20 33 44 34q22 0 52 -34q24 -28 47 -56q26 -37 26 -78q0 -45 -26 -100q0 2 -21 -39q156 0 156 -32q0 -9 -9 -24l-33 -48q-13 -11 -54 -11 q-13 0 -53 2t-66 2q-71 -125 -89 -153q0 4 22 41l-77 -147t-85 -169q-11 -28 -11 -47q0 -24 17 -33q9 -6 37 2.5t43 23.5q71 56 163 136q22 24 52 24q39 0 39 -35q0 -17 -33 -56q-74 -89 -229 -201q-180 -128 -269 -128q-72 0 -117 54q-35 39 -35 83q0 7 1 15 q17 128 171 393q-72 -93 -182 -220q-21 -21 -40 -21q-14 0 -27 10z" />
<glyph unicode="u" horiz-adv-x="1055" d="M9 346q0 32 43 76q152 182 364 427q22 24 43 24q37 0 97 -98q33 -54 33 -82q0 -20 -13 -48q-33 -78 -104 -223q-15 -26 -15 -45q0 -26 26 -18q32 11 82 63q104 108 262 318q24 33 105 71q75 35 118 35h7q61 -4 62 -45q0 -35 -43 -126q-72 -139 -162 -322q-10 -28 -10 -47 q0 -33 33 -33q24 0 59 34q43 41 87 89q22 24 53 24q39 0 39 -35q0 -17 -34 -56q-186 -217 -370 -307q-45 -22 -83 -22q-58 0 -95 46q-32 41 -32 97q0 28 10 52q35 80 105 227q-375 -422 -510 -422h-1q-89 2 -89 98q0 89 62 209q56 108 143 247q-206 -247 -233 -247 q-39 0 -39 39z" />
<glyph unicode="v" horiz-adv-x="912" d="M15 344q0 32 44 78q126 147 318 353q72 65 153 65q67 0 93 -41q15 -22 14 -48q0 -28 -39 -112q-67 -145 -200 -394q-9 -19 -10 -39q0 -55 50 -55h2h1q67 0 174 105q-29 47 -29 122q0 11 1 23q7 121 101 274q102 167 200 167q45 0 72 -39t27 -89q-17 -169 -177 -392 q4 -15 39 -15q22 0 80 76q30 39 60 39q39 0 39 -37q0 -17 -34 -56q-61 -72 -85 -91q-71 -58 -156 -58q-32 0 -64 11q-232 -191 -399 -191q-78 0 -127.5 52t-49.5 126q0 56 28 108q58 106 145 268q-206 -247 -232 -247q-39 0 -39 37z" />
<glyph unicode="w" horiz-adv-x="1191" d="M15 344q0 33 44 78q126 147 318 353q72 65 153 65q67 0 93 -41q15 -22 14 -48q0 -24 -39 -112q-41 -93 -176 -340q-15 -26 -15 -56q0 -48 39 -48q32 0 86 41q0 9 4.5 27.5t4.5 28.5q30 156 130 288q32 44 87 44h2q76 0 76 -83q0 -65 -65 -167q-54 -84 -119 -145 q2 -95 77 -95q66 0 159 130q-23 49 -23 116q0 10 1 21q6 121 99 274q102 167 202 167q46 0 74 -39q24 -33 24 -73q0 -7 -1 -15q-17 -171 -175 -393q4 -15 39 -15q22 0 80 78q28 37 59 37q39 0 39 -37q0 -17 -33 -56q-56 -69 -85 -91q-72 -58 -158 -58q-37 0 -65 11 q-59 -78 -138 -135q-85 -65 -149 -65q-112 0 -139 135q-164 -126 -264 -126q-76 0 -120.5 45.5t-44.5 114.5q0 58 31 115q59 106 145 279q-206 -247 -232 -247q-39 0 -39 37z" />
<glyph unicode="x" horiz-adv-x="892" d="M-7 331q0 22 24 48q151 171 383 428q51 55 107 55h2q89 0 101 -113q7 -76 24 -193q74 52 96 93q15 26 28 111q24 154 138 154q41 0 69 -28q31 -32 31 -86q0 -131 -137 -220q-65 -37 -214 -123q0 -17 5.5 -47.5t5.5 -45.5q11 -89 26 -111.5t54 -22.5q48 0 188 164 q24 30 48 30q32 0 32 -36q0 -19 -17 -39q-121 -151 -307 -297q-56 -45 -113 -45q-97 0 -119 101q-26 108 -43 208q-61 -37 -83 -71q-26 -39 -28 -111q-6 -212 -134 -212q-98 0 -99 115q0 106 153 249q61 58 176 125v-1l-5 81q-6 76 -43 76q-32 0 -73 -43q-78 -84 -195 -208 q-17 -19 -42 -19q-39 0 -39 34z" />
<glyph unicode="y" horiz-adv-x="864" d="M-392 -372q0 152 243 270q136 65 327 111q26 95 62 283q11 58 11 89q0 39 -24 71q-6 7 -15 7q-20 0 -115 -110q-26 -30 -48 -30q-4 0 -8 1q-24 4 -24 33q0 28 28 56q50 50 167 197q65 84 128 167q52 61 100 61q85 0 86 -159q0 -80 -19 -210q-31 -216 -87 -404q24 4 56 13 q76 110 139 287q41 113 41 211q0 48 -11 104t-11 66q0 71 39 141q30 50 85 50q54 0 93 -58q28 -39 28 -107q0 -117 -65 -257q-89 -197 -214 -383q169 104 272 246q21 29 55 29h2q32 0 32 -26q0 -22 -24 -54q-76 -104 -259 -236q-91 -65 -173 -89q-93 -121 -180 -206 q-288 -281 -453 -324q-41 -11 -80 -11q-121 0 -169 106q-15 32 -15 65zM-160 -453q186 24 298 323q5 13 16 54q-325 -82 -394 -227q-18 -39 -18 -69q0 -81 98 -81z" />
<glyph unicode="z" horiz-adv-x="780" d="M11 340q0 30 30.5 64.5t250.5 283.5q102 117 121 133q48 41 107 47h12q47 0 96 -28q71 -43 76 -45q30 -7 43 -7q37 0 99 50q19 15 39 15q41 0 41 -35q0 -26 -30 -49q-128 -98 -262 -219q-112 -102 -131.5 -130t-19.5 -48q0 -17 13 -30q26 -6 86 -28q7 -4 42 -26 q22 -15 45 -13q28 2 128 106q26 28 56 28q22 0 28 -19t-15 -46q-98 -130 -284 -281q-69 -54 -123 -54q-41 0 -85 28q-54 35 -75 35q-28 0 -80 -37q-37 -26 -61 -26q-43 0 -43 56v7q6 82 179 281q132 151 264 262h-9q-51 1 -76 23q-27 24 -53 24q-37 0 -76 -43 q-97 -104 -259 -281q-28 -30 -48 -29q-26 0 -26 31z" />
<glyph unicode="&#xad;" d="M128 563q0 32 23 67q32 50 81 50h339q72 0 72 -78q0 -30 -28 -67q-33 -43 -78 -43h-338q-71 0 -71 71z" />
<glyph unicode="&#xb7;" horiz-adv-x="446" d="M80 591q0 56 39 119q54 85 143 85q63 0 99 -44q30 -37 29 -88q0 -54 -50 -118q-59 -76 -136 -77q-125 0 -124 123z" />
<glyph unicode="&#xc5;" horiz-adv-x="1399" d="M-6 349q0 364 394 768q357 366 800 366q39 0 78 -4q139 -11 237.5 -116t96.5 -246q-2 -132 -87 -249q-99 -138 -268 -188q-177 -329 -176 -392q0 -39 50 -39q19 0 41 20q28 28 55 56q91 85 108 86q32 0 32 -34q0 -58 -229 -252q-145 -123 -282 -123q-48 0 -63 22 q-19 30 -38 58q-22 41 -22 87q0 54 30 126q-95 -115 -225 -204q-156 -108 -275 -108q-123 0 -195 127q-61 106 -62 239zM394 420q0 -52 35.5 -89t85.5 -37q108 0 266 167q46 50 159 199q-13 6 -20 5q-234 59 -234 127q0 9 3 20q9 20 23 21q24 0 122 -36q110 -39 177 -39 q46 63 89 112.5t101 88.5q65 43 107 43q54 0 54 -58q0 -39 -43 -121q87 54 140 140q50 80 48 154q-2 100 -72.5 174.5t-168.5 74.5q-175 0 -314 -76q-169 -93 -348 -327q-134 -177 -182 -329q-28 -93 -28 -214z" />
<glyph unicode="&#x2000;" horiz-adv-x="777" />
<glyph unicode="&#x2001;" horiz-adv-x="1554" />
<glyph unicode="&#x2002;" horiz-adv-x="777" />
<glyph unicode="&#x2003;" horiz-adv-x="1554" />
<glyph unicode="&#x2004;" horiz-adv-x="518" />
<glyph unicode="&#x2005;" horiz-adv-x="388" />
<glyph unicode="&#x2006;" horiz-adv-x="259" />
<glyph unicode="&#x2007;" horiz-adv-x="259" />
<glyph unicode="&#x2008;" horiz-adv-x="194" />
<glyph unicode="&#x2009;" horiz-adv-x="310" />
<glyph unicode="&#x200a;" horiz-adv-x="86" />
<glyph unicode="&#x2010;" d="M128 563q0 32 23 67q32 50 81 50h339q72 0 72 -78q0 -30 -28 -67q-33 -43 -78 -43h-338q-71 0 -71 71z" />
<glyph unicode="&#x2011;" d="M128 563q0 32 23 67q32 50 81 50h339q72 0 72 -78q0 -30 -28 -67q-33 -43 -78 -43h-338q-71 0 -71 71z" />
<glyph unicode="&#x2012;" d="M128 563q0 32 23 67q32 50 81 50h339q72 0 72 -78q0 -30 -28 -67q-33 -43 -78 -43h-338q-71 0 -71 71z" />
<glyph unicode="&#x2013;" horiz-adv-x="1081" d="M128 563q0 32 46 67q63 50 161 50h674q143 0 143 -78q0 -30 -56 -67q-65 -43 -155 -43h-672q-141 0 -141 71z" />
<glyph unicode="&#x2014;" horiz-adv-x="2105" d="M128 563q0 32 91 67q128 50 323 50h1348q286 0 286 -78q0 -30 -111 -67q-132 -43 -311 -43h-1344q-282 0 -282 71z" />
<glyph unicode="&#x2018;" horiz-adv-x="340" d="M-6 1048q0 97 78 203q56 74 145 126q76 45 121 45t45 -37q0 -19 -13 -28q-22 -13 -91 -56q-33 -22 -34 -52q0 -22 27 -63t27 -84q0 -67 -44.5 -124.5t-122.5 -57.5q-63 0 -104 39q-33 32 -34 89z" />
<glyph unicode="&#x2019;" horiz-adv-x="412" d="M0 955q0 17 13 26q24 13 91 56q33 22 34 52q0 22 -27 63t-27 84q0 67 44.5 124.5t122.5 57.5q63 0 104 -39q33 -32 33 -89q0 -97 -78 -203q-56 -74 -145 -126q-76 -45 -120 -45q-45 0 -45 39z" />
<glyph unicode="&#x201c;" horiz-adv-x="735" d="M-6 1048q0 97 78 203q56 74 145 126q76 45 121 45t45 -37q0 -19 -13 -28q-22 -13 -91 -56q-33 -22 -34 -52q0 -22 27 -63t27 -84q0 -67 -44.5 -124.5t-122.5 -57.5q-63 0 -104 39q-33 32 -34 89zM340 1048q0 97 78 203q56 74 145 126q76 45 121 45t45 -37q0 -19 -14 -28 q-22 -13 -91 -56q-33 -22 -33 -52q0 -22 27 -63t27 -84q0 -67 -44.5 -124.5t-122.5 -57.5q-63 0 -104 39q-33 32 -34 89z" />
<glyph unicode="&#x201d;" horiz-adv-x="735" d="M0 955q0 17 13 26q24 13 91 56q33 22 34 52q0 22 -27 63t-27 84q0 67 44.5 124.5t122.5 57.5q63 0 104 -39q33 -32 33 -89q0 -97 -78 -203q-56 -74 -145 -126q-76 -45 -120 -45q-45 0 -45 39zM346 955q0 17 13 26q24 13 91 56q33 22 33 52q0 22 -27 63t-27 84 q0 67 45 124.5t123 57.5q63 0 104 -39q33 -32 33 -89q0 -97 -78 -203q-56 -74 -145 -126q-76 -45 -121 -45t-44 39z" />
<glyph unicode="&#x2022;" horiz-adv-x="468" d="M33 580q0 72 52 156q69 110 184 110q84 0 129 -58q39 -48 39 -113q0 -71 -65 -156q-78 -98 -177 -99q-162 0 -162 160z" />
<glyph unicode="&#x202f;" horiz-adv-x="310" />
<glyph unicode="&#x205f;" horiz-adv-x="388" />
<glyph unicode="&#x25fc;" horiz-adv-x="910" d="M0 0v911h911v-911h-911z" />
</font>
</defs>
</svg>
